<?xml version="1.0" encoding="UTF-8"?>
<svg id="Layer_1" xmlns="http://www.w3.org/2000/svg" width="48.75" height="48.75" viewBox="0 0 48.75 48.75">
  <path d="M48.14,38.04c.12.12.22.27.28.43.07.16.1.33.1.5s-.04.34-.1.5c-.07.16-.16.3-.29.42-.12.12-.27.22-.43.28-.16.07-.33.1-.5.1-.17,0-.34-.04-.5-.1-.16-.07-.3-.16-.42-.29-.28-.26-.55-.54-.82-.81-.68-.68-1.37-1.36-2.04-2.05-.2-.19-.32-.42-.37-.69s0-.53.12-.77c.12-.26.31-.46.56-.61.25-.14.52-.2.81-.16.26.08.49.21.71.37.98.94,1.94,1.9,2.89,2.88ZM25.82,43.34c.01,1.33.01,2.67,0,4,0,.17-.03.34-.1.5-.07.16-.16.3-.28.43-.12.12-.26.22-.43.28-.16.07-.33.1-.5.1s-.34-.03-.5-.1c-.16-.07-.3-.16-.43-.28-.12-.12-.22-.26-.28-.43-.07-.16-.1-.33-.1-.5-.01-.66,0-1.32,0-1.98s0-1.32,0-1.98c0-.17.03-.34.09-.5s.16-.31.28-.43c.12-.12.26-.22.42-.29.16-.07.33-.1.5-.11.17,0,.34.03.5.09s.31.16.43.28.22.26.29.42.1.33.11.5h0ZM5.77,36.89c-.1.29-.23.57-.41.82-.96,1-1.94,1.98-2.93,2.95-.12.11-.26.2-.42.26s-.32.09-.49.08c-.17,0-.33-.04-.48-.1-.15-.07-.29-.16-.41-.28-.12-.11-.22-.24-.29-.39-.07-.15-.11-.3-.12-.47,0-.16.01-.32.06-.48s.13-.3.24-.42c.98-1.03,2-2.04,3.02-3.03.19-.17.4-.28.66-.31.25-.03.49.01.71.14.24.11.44.28.59.5.15.22.24.46.26.73ZM43.17,13.08c-.12-.24-.16-.5-.12-.77.05-.27.17-.5.37-.69.67-.69,1.36-1.37,2.04-2.05.27-.27.54-.55.82-.81.12-.12.26-.21.42-.28.16-.07.32-.1.49-.1.17,0,.33.03.49.09s.3.15.42.27c.13.12.23.26.3.42.07.16.11.33.11.5,0,.17-.03.34-.09.5-.06.16-.16.31-.28.43-.95.98-1.91,1.94-2.89,2.88-.22.16-.45.29-.71.37-.29.03-.56-.02-.81-.16-.25-.14-.44-.34-.56-.61h0ZM23.2,5.27c0-.66,0-1.32,0-1.98s0-1.32,0-1.98c0-.17.03-.34.1-.5.07-.16.16-.3.28-.43.12-.12.26-.22.43-.28.16-.07.33-.1.5-.1s.34.03.5.1c.16.07.3.16.43.28.12.12.22.26.28.43.07.16.1.33.1.5.01,1.33.01,2.67,0,4,0,.17-.04.34-.11.5-.07.16-.17.3-.29.42-.12.12-.27.21-.43.28-.16.06-.33.1-.5.09s-.34-.04-.5-.11c-.16-.07-.3-.17-.42-.29-.12-.12-.21-.27-.28-.43s-.1-.33-.09-.5h0ZM.53,9.77c-.11-.12-.19-.26-.24-.42s-.07-.32-.06-.48c0-.16.05-.32.12-.47.07-.15.17-.28.29-.39.12-.12.25-.21.41-.28.15-.07.31-.1.48-.1.17,0,.33.03.49.09s.3.15.42.26c.99.97,1.98,1.95,2.93,2.95.18.25.32.53.41.82-.02.27-.11.51-.26.73s-.35.39-.59.5c-.22.12-.46.17-.71.13-.25-.03-.47-.14-.66-.31-1.03-.99-2.04-1.99-3.02-3.03ZM26.21,31.14c.66-.29,1.26-.66,1.81-1.12.55-.46,1.02-.99,1.41-1.59.39-.6.69-1.24.9-1.93.2-.69.31-1.39.31-2.1,0-.72-.1-1.42-.31-2.1-.21-.69-.5-1.33-.9-1.93-.39-.6-.86-1.13-1.41-1.59-.55-.46-1.15-.83-1.81-1.12,2.58.36,5.04,1.11,7.37,2.26,2.33,1.15,4.43,2.65,6.28,4.48-1.85,1.83-3.94,3.32-6.27,4.48-2.33,1.15-4.79,1.91-7.37,2.27h0ZM23.27,29.13c-.31,0-.62-.03-.92-.09-.31-.06-.6-.15-.89-.27-.29-.12-.56-.26-.82-.44-.26-.17-.5-.37-.72-.59-.22-.22-.42-.46-.59-.72-.17-.26-.32-.53-.44-.82-.12-.29-.21-.58-.27-.89-.06-.31-.09-.61-.09-.92,0-.31.03-.62.09-.92.06-.31.15-.6.27-.89.12-.29.26-.56.44-.82.17-.26.37-.5.59-.72s.46-.42.72-.59c.26-.17.53-.32.82-.44s.58-.21.89-.27c.31-.06.61-.09.92-.09.31,0,.62.03.92.09.31.06.6.15.89.27.29.12.56.27.82.44.26.17.5.37.72.59.22.22.42.46.59.72.17.26.32.53.44.82.12.29.21.58.27.89s.09.61.09.92c0,.31-.03.62-.09.92-.06.3-.15.6-.27.89-.12.29-.26.56-.44.82-.17.26-.37.5-.59.72-.22.22-.46.42-.72.59s-.53.32-.82.44-.58.21-.89.27c-.3.06-.61.09-.92.09h0ZM6.48,24.39c1.88-1.86,4.01-3.37,6.39-4.53,2.38-1.16,4.88-1.91,7.51-2.24-.66.28-1.27.65-1.82,1.12-.55.46-1.03.99-1.43,1.59-.4.6-.7,1.25-.91,1.94-.21.69-.31,1.4-.31,2.12,0,.72.1,1.43.31,2.12.21.69.51,1.34.91,1.94.4.6.87,1.13,1.42,1.6.55.46,1.16.84,1.82,1.12-2.62-.33-5.12-1.08-7.5-2.24-2.38-1.16-4.51-2.67-6.39-4.53h0ZM42.11,22.97c-1.19-1.24-2.5-2.35-3.91-3.34-1.41-.99-2.9-1.83-4.48-2.53-1.57-.7-3.2-1.24-4.88-1.62-1.68-.38-3.38-.6-5.1-.65-11.69-.21-18.91,7.67-19.94,8.84-.25.31-.52.6-.77.91.26.3.64.72,1.12,1.2,3.28,3.3,10.19,8.4,19.59,8.17,1.72-.05,3.42-.27,5.1-.65s3.3-.92,4.88-1.62c1.57-.7,3.07-1.54,4.48-2.52,1.41-.99,2.71-2.1,3.91-3.34.46-.45.92-.92,1.38-1.38-.45-.49-.92-.99-1.38-1.48Z"/>
</svg>