<?xml version="1.0" encoding="UTF-8"?>
<svg id="Layer_1" xmlns="http://www.w3.org/2000/svg" width="54" height="54" viewBox="0 0 54 54">
  <path d="M40.45,15.39c.04-.56.31-1.14.78-1.61.47-.47,1.05-.73,1.61-.78.49-.04.97.1,1.31.41l.04.03c.34.34.49.83.45,1.34-.04.56-.31,1.14-.78,1.61-.47.47-1.05.73-1.61.78-.5.04-.98-.1-1.33-.43,0,0,0-.01-.01-.02,0,0-.01,0-.02-.01-.33-.34-.47-.82-.43-1.33ZM30.64,19.61c.33.33.86.33,1.18,0l1.11-1.11,2.5,2.5-5.17,5.17c-.33.33-.33.86,0,1.18.33.33.86.33,1.18,0l5.17-5.17,5.17,5.17c.33.33.86.33,1.18,0,.33-.33.33-.86,0-1.18l-5.17-5.17,2.58-2.58c.59.34,1.28.48,1.98.42.94-.07,1.9-.5,2.66-1.26.76-.76,1.19-1.72,1.26-2.66.08-.98-.23-1.94-.93-2.65l-.05-.05c-.7-.67-1.64-.96-2.6-.88-.94.07-1.9.5-2.66,1.26-.76.76-1.19,1.72-1.26,2.66-.06.7.08,1.39.42,1.98l-2.58,2.58-2.5-2.5,1.11-1.11c.33-.33.33-.86,0-1.18l-4.46-4.46c-.33-.33-.86-.33-1.18,0s-.33.86,0,1.18l3.87,3.87-.52.52-3.87-3.87c-.33-.33-.86-.33-1.18,0-.33.33-.33.86,0,1.18l3.87,3.87-.52.52-3.87-3.87c-.33-.33-.86-.33-1.18,0-.33.33-.33.86,0,1.18l4.46,4.45ZM51.14,50.47h-11.51c.07-.22.11-.46.11-.71,0-.66-.27-1.25-.7-1.68-.35-.35-.82-.59-1.33-.67,0-.18,0-.33,0-.45,0-1.6-.22-3.15-.63-4.63h8.38c.46,0,.84-.37.84-.84s-.37-.84-.84-.84h-8.94c-.34-.87-.75-1.71-1.22-2.51h10.16c.46,0,.84-.37.84-.84s-.37-.84-.84-.84h-11.28c-.49-.64-1.02-1.25-1.58-1.82-.24-.24-.48-.47-.73-.69h13.6c.46,0,.84-.37.84-.84s-.37-.84-.84-.84h-15.8c-1.94-1.25-4.14-2.12-6.49-2.51v-.03c0-.79-.3-1.51-.79-2.05l-.05-.05c-.34-.35-.76-.62-1.23-.77V7.33h30.03v43.14h0ZM2.69,50.26c-.13-.13-.21-.31-.21-.5s.08-.37.21-.5c.13-.13.31-.21.5-.21h34.16c.19,0,.37.08.5.21.13.13.21.31.21.5s-.08.37-.21.5c-.13.13-.31.21-.5.21H3.19c-.19,0-.37-.08-.5-.21ZM9.13,35.84c2.85-2.85,6.79-4.62,11.11-4.62h.06c4.33,0,8.26,1.77,11.11,4.62,2.85,2.85,4.62,6.79,4.62,11.11v.42H4.51v-.42c0-4.33,1.77-8.26,4.62-11.11ZM19.41,28.8h0c.22-.23.52-.37.86-.37h0c.33,0,.64.14.86.37l.04.04c.18.2.3.46.33.75-.39-.03-.79-.04-1.19-.04h-.06c-.4,0-.8.01-1.19.04.04-.31.17-.58.36-.79ZM51.14,5.66h-16.63l16.63-1.96v1.96h0ZM52.81,2.76v-.09c-.06-.46-.47-.79-.93-.73l-31.68,3.73c-.43.03-.77.39-.77.83v20.39c-.47.15-.89.41-1.23.77-.52.54-.84,1.29-.84,2.1v.03c-3.64.61-6.91,2.36-9.42,4.87-3.16,3.16-5.11,7.51-5.11,12.3,0,.13,0,.28,0,.45-.52.08-.98.32-1.33.67-.43.43-.7,1.03-.7,1.68s.27,1.25.7,1.68c.43.43,1.03.7,1.68.7h48.78c.46,0,.84-.37.84-.84V2.76Z"/>
</svg>