<?xml version="1.0" encoding="UTF-8"?>
<svg id="Layer_1" xmlns="http://www.w3.org/2000/svg" width="54" height="54" viewBox="0 0 54 54">
  <path d="M38.08,45.24H10.7v3.88c0,.25.03.51.08.76.05.25.12.49.22.73.1.23.22.46.36.67.14.21.3.41.48.59s.38.34.59.48c.21.14.43.26.67.36s.48.17.73.22c.25.05.5.08.76.08h24.97c-.98-1.11-1.47-2.4-1.46-3.88v-3.88ZM24.33,14.1c0-.25-.08-.46-.24-.64-.19-.23-.43-.35-.73-.34h-3.33c-.13,0-.25.03-.37.08-.12.05-.23.12-.32.21-.09.09-.16.2-.21.32-.05.12-.07.25-.07.38v3.26c0,.13.03.25.08.37s.12.22.21.31c.09.09.2.16.32.21.12.05.24.07.37.07h3.33c.13,0,.25-.03.37-.08.12-.05.22-.12.32-.21.09-.09.16-.2.21-.32.05-.12.07-.24.07-.37v-3.24ZM24.33,20.6c0-.13-.02-.26-.07-.38-.05-.12-.12-.23-.21-.32s-.2-.16-.32-.21c-.12-.05-.24-.08-.37-.08h-3.33c-.13,0-.25.03-.37.08-.12.05-.23.12-.32.21-.09.09-.16.2-.21.32-.05.12-.07.25-.07.38v3.24c0,.13.02.26.07.38.05.12.12.23.21.32.09.09.2.16.32.21.12.05.25.08.38.08h3.33c.13,0,.25-.03.37-.08.12-.05.23-.12.32-.21.09-.09.16-.2.21-.32.05-.12.07-.25.07-.38v-3.24ZM24.33,27.09c0-.13-.03-.25-.08-.37-.05-.12-.12-.23-.21-.32-.09-.09-.2-.16-.32-.21s-.24-.08-.37-.08h-3.33c-.13,0-.25.03-.37.08-.12.05-.23.12-.32.21-.09.09-.16.2-.21.32-.05.12-.07.25-.07.38v3.24c0,.13.03.25.07.37.05.12.12.23.21.32s.2.16.32.21c.12.05.24.08.37.08h3.33c.13,0,.25-.03.37-.08.12-.05.22-.12.31-.21.09-.09.16-.2.21-.32s.07-.24.07-.37v-3.24ZM24.33,33.59c0-.13-.02-.26-.07-.38-.05-.12-.12-.23-.21-.32-.09-.09-.2-.16-.32-.21-.12-.05-.24-.08-.37-.08h-3.33c-.13,0-.26.03-.38.08-.12.05-.23.12-.32.21-.09.09-.16.2-.21.32-.05.12-.07.25-.07.38v3.24c0,.13.03.25.07.37.05.12.12.23.21.32.09.09.2.16.32.21.12.05.24.08.37.08h3.33c.13,0,.25-.03.37-.08.12-.05.22-.12.31-.21.09-.09.16-.2.21-.32.05-.12.07-.24.08-.37v-3.24ZM17.68,14.1c0-.13-.02-.26-.07-.38-.05-.12-.12-.23-.21-.32-.09-.09-.2-.16-.32-.21s-.24-.08-.37-.08h-3.33c-.13,0-.25.03-.37.08-.12.05-.23.12-.32.21-.09.09-.16.2-.21.32-.05.12-.07.25-.07.38v3.24c0,.13.02.26.07.38.05.12.12.23.21.32.09.09.2.16.32.21.12.05.24.08.37.08h3.33c.13,0,.26-.02.38-.07s.23-.12.32-.21c.09-.09.16-.2.21-.32.05-.12.07-.25.07-.38v-3.24ZM17.68,20.59c0-.13-.02-.26-.07-.38-.05-.12-.12-.23-.21-.32-.09-.09-.2-.16-.32-.21s-.24-.08-.37-.08h-3.33c-.13,0-.25.03-.37.08-.12.05-.23.12-.32.21-.09.09-.16.2-.21.32-.05.12-.07.25-.07.38v3.24c0,.13.02.26.07.38.05.12.12.23.21.32.09.09.2.16.32.21.12.05.25.08.38.08h3.33c.13,0,.26-.03.38-.08s.23-.12.32-.21c.09-.09.16-.2.21-.32.05-.12.07-.25.07-.38v-3.24ZM17.68,27.09c0-.13-.02-.26-.07-.38-.05-.12-.12-.23-.21-.32-.09-.09-.2-.16-.32-.21-.12-.05-.24-.08-.37-.08h-3.33c-.13,0-.25.03-.37.08-.12.05-.23.12-.32.21-.09.09-.16.2-.21.32-.05.12-.07.25-.07.38v3.24c0,.13.02.25.07.38.05.12.12.23.21.32.09.09.2.16.32.21.12.05.24.08.37.08h3.33c.13,0,.25-.03.37-.08.12-.05.23-.12.32-.21.09-.09.16-.2.21-.32.05-.12.07-.25.07-.38v-3.24ZM17.68,33.59c0-.13-.02-.26-.07-.38-.05-.12-.12-.23-.21-.32-.09-.09-.2-.16-.32-.21-.12-.05-.25-.08-.38-.08h-3.33c-.13,0-.26.03-.38.08-.12.05-.23.12-.32.21-.09.09-.16.2-.21.32-.05.12-.07.25-.07.38v3.24c0,.13.02.26.07.38.05.12.12.23.21.32.09.09.2.16.32.21.12.05.24.08.37.08h3.33c.13,0,.25-.03.37-.08.12-.05.23-.12.32-.21s.16-.2.21-.32c.05-.12.07-.24.07-.37v-3.25ZM11.04,14.1c0-.13-.03-.26-.08-.38s-.12-.23-.21-.32-.2-.16-.32-.21c-.12-.05-.25-.07-.38-.07h-3.33c-.13,0-.25.03-.37.08-.12.05-.23.12-.32.21s-.16.2-.21.32c-.05.12-.07.25-.07.38v3.24c0,.13.02.26.07.38.05.12.12.23.21.32s.2.16.32.21c.12.05.24.08.37.08h3.33c.13,0,.26-.02.38-.07.12-.05.23-.12.32-.21.09-.09.16-.2.21-.32.05-.12.08-.25.08-.38v-3.24ZM11.04,20.59c0-.13-.03-.26-.08-.38s-.12-.23-.21-.32c-.09-.09-.2-.16-.32-.21-.12-.05-.25-.07-.38-.07h-3.33c-.13,0-.25.03-.37.08-.12.05-.23.12-.32.21-.09.09-.16.2-.21.32s-.07.25-.07.38v3.24c0,.13.02.26.07.38.05.12.12.23.21.32.09.09.2.16.32.21s.25.08.38.08h3.33c.13,0,.26-.03.38-.08.12-.05.23-.12.32-.21s.16-.2.21-.32.08-.25.08-.38v-3.24ZM11.04,27.09c0-.13-.03-.26-.08-.38-.05-.12-.12-.23-.21-.32-.09-.09-.2-.16-.32-.21-.12-.05-.25-.07-.38-.07h-3.33c-.13,0-.25.03-.37.08-.12.05-.23.12-.32.21-.09.09-.16.2-.21.32-.05.12-.07.25-.07.38v3.24c0,.13.02.25.07.38.05.12.12.23.21.32.09.09.2.16.32.21.12.05.24.08.37.08h3.33c.13,0,.26-.02.38-.07.12-.05.23-.12.32-.21.09-.09.16-.2.21-.32.05-.12.08-.25.08-.38v-3.24ZM11.04,33.59c0-.13-.03-.26-.08-.38-.05-.12-.12-.23-.21-.32-.09-.09-.2-.16-.32-.21s-.25-.08-.38-.08h-3.33c-.13,0-.26.03-.38.08-.12.05-.23.12-.32.21s-.16.2-.21.32c-.05.12-.07.25-.07.38v3.24c0,.13.02.26.07.38s.12.23.21.32c.09.09.2.16.32.21.12.05.24.08.37.08h3.33c.13,0,.26-.02.38-.07.12-.05.23-.12.32-.21.09-.09.16-.2.21-.32.05-.12.08-.25.08-.38v-3.24ZM5.75,9.93c0,.13.02.26.07.38.05.12.12.23.21.32s.2.16.32.21c.12.05.25.08.38.08h23.29c.35,0,.63-.15.82-.45.1-.16.15-.34.15-.54v-5.11c0-.13-.02-.26-.07-.38-.05-.12-.12-.23-.21-.32-.09-.09-.2-.16-.32-.21-.12-.05-.24-.08-.37-.08H6.72c-.13,0-.25.03-.37.08-.12.05-.23.12-.32.21-.09.09-.16.2-.21.32-.05.12-.07.25-.07.38v5.11ZM30.99,14.1c0-.13-.02-.26-.07-.38-.05-.12-.12-.23-.21-.32-.09-.09-.2-.16-.32-.21-.12-.05-.24-.08-.37-.08h-3.33c-.13,0-.25.03-.37.08-.12.05-.23.12-.32.21-.09.09-.16.2-.21.32-.05.12-.07.25-.07.38v3.24c0,.13.02.26.07.38.05.12.12.23.21.32s.2.16.32.21c.12.05.24.08.37.08h3.33c.13,0,.25-.03.37-.08.12-.05.23-.12.32-.21.09-.09.16-.2.21-.32.05-.12.07-.25.07-.38v-3.24ZM30.99,20.59c0-.13-.02-.26-.07-.38-.05-.12-.12-.23-.21-.32-.09-.09-.2-.16-.32-.21-.12-.05-.24-.08-.37-.08h-3.33c-.13,0-.25.03-.37.08-.12.05-.23.12-.32.21-.09.09-.16.2-.21.32-.05.12-.07.25-.07.38v3.24c0,.13.02.26.07.38.05.12.12.23.21.32s.2.16.32.21c.12.05.25.08.38.08h3.33c.24,0,.45-.08.64-.23.18-.16.29-.36.33-.6.01-.05.02-.1.01-.15v-3.25ZM30.16,40.67H4.29c-.23,0-.46-.05-.67-.14-.21-.09-.4-.22-.57-.38-.16-.16-.29-.35-.38-.57-.09-.21-.13-.44-.13-.67V2.75c0-.48.17-.9.51-1.24.34-.34.75-.51,1.24-.51h28.16c.23,0,.46.05.67.14s.4.22.57.38c.16.16.29.35.38.57.09.21.13.44.14.67v20.51h0c-.6.11-1.18.28-1.74.5l-.06.02c-.11.04-.23.1-.33.15-.59.26-1.14.58-1.66.96-.04.02-.07.04-.1.07-.06.04-.13.09-.19.14l-.22.18c-.05.04-.1.08-.14.12-.04.03-.09.06-.12.1-.07.06-.15.12-.21.19-.04.03-.07.06-.1.09-.06.06-.12.12-.2.19-.05.05-.1.1-.15.16h-2.29c-.13,0-.25.02-.37.07-.12.05-.23.12-.32.21s-.16.2-.21.32-.07.24-.07.37v3.25c0,.22.07.41.2.58.13.17.3.29.51.35,0,.05-.02.1-.03.16v.11c-.02.05-.02.1-.03.15l-.05.52c0,.05,0,.11-.01.16,0,.1,0,.2,0,.32-.18.08-.32.2-.42.36-.1.16-.16.34-.16.53v3.25c0,.13.03.25.07.37.05.12.12.23.21.32.09.09.2.16.32.21s.24.07.37.07h.95l.38.6s.03.05.08.12l.16.21.05.07c.25.34.53.65.83.95.32.32.67.62,1.04.9ZM21.01,29.36h1.36v-1.29h-1.36v1.29ZM21.01,22.86h1.36v-1.28h-1.36v1.28ZM36.16,18.16h8.16c.13,0,.26.03.38.08.12.05.23.12.32.22.09.09.17.2.22.32.05.12.08.25.08.38s-.03.26-.08.38c-.05.12-.12.23-.22.32-.09.09-.2.17-.32.22-.12.05-.25.08-.38.08h-8.16v1.42h8.16c.13,0,.26.03.38.08.12.05.23.12.32.22.09.09.17.2.22.32.05.12.08.25.08.38s-.03.26-.08.38c-.05.12-.12.23-.22.32-.09.09-.2.17-.32.22-.12.05-.25.08-.38.08h-5.23c.97.33,1.87.81,2.69,1.42h6.18c.13,0,.26.03.38.08.12.05.23.12.33.22.09.09.17.2.22.32.05.12.08.25.08.38s-.03.26-.08.38c-.05.12-.12.23-.22.32-.09.09-.2.17-.33.22-.12.05-.25.08-.38.08h-4.19c.51.68.92,1.42,1.24,2.2.11.27.2.55.28.84.27.91.41,1.84.4,2.79,0,1-.15,1.97-.44,2.92h2.71c.13,0,.26.03.38.08s.23.12.33.22c.09.09.17.2.22.32s.08.25.08.38-.03.26-.08.38-.12.23-.22.32c-.09.09-.2.17-.32.22-.12.05-.25.08-.38.08h-3.6c-.42.73-.92,1.38-1.51,1.98-.58.59-1.23,1.09-1.93,1.51-.71.42-1.46.75-2.25.98-.79.23-1.6.35-2.43.37-.83.02-1.64-.06-2.44-.25-.43.17-.88.26-1.34.26h-8.3v.61h14.94c.13,0,.26.03.38.08.12.05.23.12.33.22.09.09.17.2.22.33.05.12.08.25.08.39v4.88c0,.25.03.51.08.76.05.25.12.49.22.73.1.24.22.46.36.67.14.21.3.41.48.59s.38.34.59.48c.21.14.44.26.67.36.24.1.48.17.73.22.25.05.5.07.76.07h3.69c.25,0,.51-.02.76-.07.25-.05.49-.12.73-.22.24-.1.46-.22.67-.36.21-.14.41-.3.59-.48s.34-.38.48-.59c.14-.21.26-.44.36-.67.1-.24.17-.48.22-.73.05-.25.07-.5.08-.76V10.59h-15.37v7.57ZM21.01,16.36h1.36v-1.28h-1.36v1.28ZM7.71,22.86h1.36v-1.28h-1.36v1.28ZM29.03,5.8H7.71v3.15h21.32v-3.15ZM21.01,35.85h1.36v-1.29h-1.36v1.29ZM7.71,35.85h1.36v-1.29h-1.36v1.29ZM35.01,28.29c-.33.05-.63.16-.92.32s-.54.37-.75.62c-.21.25-.38.53-.49.84-.11.31-.17.63-.17.96,0,.74.26,1.39.77,1.93l.05.05c.2.2.41.36.66.49.41.22.85.33,1.32.33h1.04c.25,0,.45.09.62.28.04.04.07.08.09.12.08.13.12.28.12.43,0,.23-.09.43-.25.59-.16.16-.36.24-.59.25h-1.04c-.23,0-.43-.09-.59-.25-.16-.16-.24-.36-.24-.59-.02-.26-.13-.47-.32-.64-.19-.17-.41-.26-.67-.26s-.48.09-.67.26c-.19.17-.29.39-.32.64,0,.77.28,1.43.83,1.98.19.2.41.36.66.48.27.15.56.25.86.3v.58c0,.13.03.25.08.37s.12.22.21.31c.09.09.2.16.31.21.12.05.24.07.37.07s.25-.02.37-.07c.12-.05.22-.12.31-.21.09-.09.16-.19.21-.31s.08-.24.08-.37v-.58c.59-.1,1.1-.36,1.52-.78.14-.14.26-.29.37-.46.3-.46.45-.97.45-1.52,0-.21-.02-.42-.08-.63-.11-.49-.34-.92-.69-1.28l-.06-.06c-.11-.11-.23-.21-.35-.3-.49-.35-1.03-.52-1.63-.52h-1.05c-.24,0-.44-.09-.61-.26-.15-.16-.22-.35-.22-.57,0-.16.04-.3.13-.44.03-.06.07-.11.12-.15.16-.16.35-.24.58-.24h1.05c.23,0,.42.08.58.24.09.09.16.2.2.32.03.09.05.18.05.27.02.26.13.47.32.64.19.17.41.26.67.26s.48-.09.67-.26c.19-.17.29-.39.32-.64,0-.14,0-.28-.03-.42-.09-.61-.36-1.13-.79-1.56-.02-.03-.05-.05-.08-.07-.41-.38-.89-.62-1.44-.71v-.58c0-.13-.02-.26-.07-.38-.05-.12-.12-.23-.21-.33-.09-.09-.2-.17-.32-.22-.12-.05-.25-.08-.38-.08s-.26.03-.38.08c-.12.05-.23.12-.32.22s-.16.2-.21.33c-.05.12-.07.25-.07.38v.58ZM33.69,25.4c1.67-.46,3.32-.41,4.96.13.57.22,1.11.49,1.62.83.27.18.53.38.78.6.14.12.28.24.41.38.58.58,1.05,1.24,1.42,1.98.23.46.42.93.55,1.42.18.62.27,1.25.29,1.9,0,.08,0,.15,0,.22,0,1.07-.21,2.09-.62,3.08-.21.5-.48.98-.79,1.42-.25.36-.54.7-.85,1.01-.56.56-1.18,1.03-1.88,1.39-.7.37-1.44.62-2.21.77-.78.14-1.56.16-2.34.07-.78-.1-1.53-.31-2.25-.64v-.1h-.2l-.29-.15c-.44-.24-.85-.52-1.23-.84l-.06-.05s-.1-.08-.15-.12c-.03-.04-.06-.07-.1-.1-.07-.06-.14-.13-.2-.2l-.05-.04c-.24-.24-.46-.49-.66-.76l-.06-.09c-.07-.09-.14-.18-.2-.28l-.1-.15s-.05-.08-.08-.12l-.04-.08c-.12-.2-.23-.4-.33-.61l-.06-.14c-.03-.06-.06-.14-.09-.2l-.09-.23s-.03-.08-.05-.14l-.12-.36c-.04-.12-.07-.23-.1-.35,0-.04-.02-.08-.03-.11l-.06-.28c-.01-.14-.03-.27-.07-.4v-.03s-.05-.32-.05-.32c0-.05-.01-.1-.01-.15,0-.05,0-.1-.01-.15v-.12s-.01-.06,0-.09c0-.12-.01-.24-.01-.37s0-.26.01-.39c0-.13.02-.28.03-.42,0-.03,0-.07.01-.1l.21-1.14c.02-.07.04-.14.07-.23l.12-.36s.03-.08.05-.12c.03-.07.05-.14.09-.24.01-.04.03-.08.05-.11.02-.07.05-.14.09-.2l.06-.12c.03-.07.07-.14.11-.22l.03-.12h.03s.06-.1.12-.21c.02-.04.04-.08.07-.12.03-.05.07-.11.08-.14.02-.03.05-.07.07-.1l.16-.23c.04-.06.08-.11.14-.19.02-.04.05-.07.12-.15.04-.05.08-.1.13-.16.16-.18.39-.43.42-.47.92-.87,1.98-1.51,3.17-1.92h0ZM27.66,22.86h1.36v-1.28h-1.36v1.28ZM27.66,16.36h1.36v-1.28h-1.36v1.28ZM7.71,29.36h1.36v-1.29h-1.36v1.29ZM14.36,22.86h1.36v-1.28h-1.36v1.28ZM14.36,16.36h1.36v-1.28h-1.36v1.28ZM7.71,16.36h1.36v-1.28h-1.36v1.28ZM14.36,35.85h1.36v-1.29h-1.36v1.29ZM14.36,28.07h1.36v1.29h-1.36v-1.29Z"/>
</svg>