<?xml version="1.0" encoding="UTF-8"?>
<svg id="Layer_1" xmlns="http://www.w3.org/2000/svg" width="54" height="54" viewBox="0 0 54 54">
  <path d="M47.24,18.62c-.56,0-2.02.3-2.05,1.63l.13,11.24c0,.22-.07.43-.22.59l-5.13,5.97c-.3.36-.84.41-1.22.13-.38-.28-.48-.81-.22-1.2l1.73-2.69c.1-.23.39-1.07-.33-1.57-.7-.49-1.85.15-2.18.35l-5.29,6.59.05,7.34h7.8v-2.47c0-.21.07-.41.21-.57l8.13-9.75v-14.3c0-.39-.16-1.3-1.41-1.3h0Z"/>
  <rect x="30.91" y="48.82" width="10.9" height="4.18"/>
  <path d="M13.95,44.55v2.47h7.8l.05-7.34-5.29-6.59c-.32-.21-1.48-.84-2.18-.35-.72.5-.44,1.33-.33,1.58l1.72,2.69c.25.39.16.92-.22,1.2-.38.28-.91.22-1.22-.13l-5.13-5.97c-.14-.16-.22-.38-.22-.59l.13-11.52c-.11-.65-.88-1.28-1.6-1.3-1.26-.07-1.75,1.05-1.86,1.38v14.17l8.13,9.75c.13.16.21.37.21.57h0Z"/>
  <rect x="12.44" y="48.82" width="10.9" height="4.18"/>
  <path d="M31.08,19.71c-.54.71-1.73,1.26-3.07,1.48v1.77c0,.49-.4.9-.9.9s-.9-.4-.9-.9v-1.71c-1.21-.1-2.38-.48-3.42-1.15-.41-.27-.54-.82-.27-1.24.27-.41.82-.54,1.24-.27,1.26.81,2.5.94,3.32.91,1.38-.06,2.38-.6,2.57-.87.37-.48.49-1.05.35-1.56-.18-.61-.73-1.1-1.6-1.43-.22-.08-.47-.16-.73-.25-.27-.09-.56-.18-.86-.29-1.42-.5-3.13-1.31-3.85-3.08-.41-1-.25-2.13.43-3.08.65-.92,1.69-1.52,2.82-1.68v-1.71c0-.49.4-.9.9-.9s.9.4.9.9v1.83c.84.2,1.83.56,2.51,1.04.4.29.5.84.22,1.25-.29.4-.84.5-1.25.22-.61-.43-1.78-.8-2.47-.87h-.13c-.78-.04-1.59.33-2.04.97-.19.26-.46.78-.22,1.36.45,1.1,1.72,1.69,2.79,2.06.28.1.56.19.82.27.3.1.57.19.81.28,1.4.52,2.35,1.45,2.69,2.61.3,1.06.07,2.21-.65,3.15h-.02ZM41.24,14.89c0-7.67-6.33-13.9-14.11-13.9s-14.11,6.23-14.11,13.9,6.33,13.9,14.11,13.9,14.11-6.23,14.11-13.9h0Z"/>
</svg>