<?xml version="1.0" encoding="UTF-8"?>
<svg id="Layer_1" xmlns="http://www.w3.org/2000/svg" width="54" height="54" viewBox="0 0 54 54">
  <path d="M51.07,7.67c-.38-.43-.98-.57-1.51-.36-3.41,1.4-5.88.76-7.75-1.96-2.66-4.5-6.53-5.54-11.23-2.97l-.15.1h0c-.21.18-.36.41-.44.68l-3.65,13.62c-.9-.16-1.79-.24-2.66-.24-8.48,0-15.38,6.9-15.38,15.38s6.9,15.37,15.38,15.37,15.37-6.9,15.37-15.37c0-6.54-4.05-12.26-10.15-14.46l.47-1.76c3.22-1.6,5.36-.91,7.15,2.32,2.6,4.01,6.42,5.05,11.04,3.01.48-.21.79-.68.8-1.2,0-.52-.3-1-.77-1.22-1.71-.79-2.67-1.95-2.99-3.62,2.51-.56,4.68-2.45,6.6-5.77.29-.49.23-1.11-.14-1.55ZM43.14,12.5c-.73.02-1.32.62-1.3,1.36.05,2.25.78,4.09,2.18,5.48-2.17.29-3.84-.6-5.2-2.69-1.6-2.9-3.84-4.43-6.48-4.43-.67,0-1.37.1-2.1.29l2.17-8.09c3.13-1.53,5.28-.82,7.16,2.36,1.86,2.72,4.36,4.03,7.32,3.88-1.17,1.22-2.39,1.81-3.76,1.84ZM23.69,38.46c-3.61,0-6.55-2.94-6.55-6.55s2.94-6.55,6.55-6.55c.11,0,.23,0,.35.01l-1.64,6.11c-.19.71.24,1.44.94,1.62h0c.72.18,1.43-.25,1.62-.94l1.63-6.09c2.2,1.1,3.63,3.35,3.63,5.83,0,3.61-2.94,6.55-6.55,6.55ZM24.74,22.78c-.36-.04-.71-.07-1.05-.07-5.08,0-9.21,4.13-9.21,9.21s4.13,9.2,9.21,9.2,9.2-4.13,9.2-9.2c0-3.68-2.22-6.98-5.59-8.43l.92-3.45c4.92,1.88,8.18,6.56,8.18,11.88,0,7.01-5.7,12.72-12.72,12.72s-12.72-5.7-12.72-12.72,5.7-12.72,12.72-12.72c.65,0,1.31.05,1.97.16l-.92,3.42Z"/>
  <path d="M43.91,25.93c-.1-.34-.33-.63-.65-.8-.31-.17-.67-.2-1.01-.1-.7.21-1.1.95-.89,1.65.5,1.69.75,3.46.75,5.24,0,10.16-8.27,18.43-18.43,18.43S5.26,42.08,5.26,31.92,13.53,13.49,23.69,13.49c.73,0,1.33-.6,1.33-1.33s-.6-1.33-1.33-1.33C12.06,10.83,2.6,20.29,2.6,31.92s9.46,21.08,21.08,21.08,21.08-9.46,21.08-21.08c0-2.03-.29-4.05-.86-5.99Z"/>
</svg>