<?xml version="1.0" encoding="UTF-8"?>
<svg id="Layer_1" xmlns="http://www.w3.org/2000/svg" width="54" height="54" viewBox="0 0 54 54">
  <path d="M14.87,18.03c-.24,0-.48-.06-.7-.16-.22-.1-.42-.24-.59-.41s-.3-.37-.39-.6c-.09-.22-.14-.46-.14-.7,0-.54.19-.99.58-1.36.4-.37.87-.54,1.42-.52.24.02.48.08.7.19.22.11.41.25.58.44.16.18.29.39.37.62.08.23.12.47.11.72-.01.25-.07.48-.17.7-.1.22-.24.42-.42.59-.18.17-.38.29-.61.38-.23.09-.47.13-.71.12h0ZM18.49,16.2c0-.24-.02-.47-.06-.7-.04-.23-.11-.46-.2-.67-.09-.22-.2-.43-.33-.62-.13-.2-.28-.38-.44-.55-.17-.17-.34-.32-.54-.45s-.4-.24-.62-.34c-.22-.09-.44-.16-.67-.21-.23-.05-.46-.07-.7-.07h-.02c-.47,0-.92.1-1.35.28-.43.18-.81.44-1.14.77-.33.33-.59.71-.77,1.14-.18.43-.27.88-.28,1.35s.08.92.25,1.35.42.82.75,1.15c.32.34.7.6,1.13.79s.87.29,1.34.3h.07c.47,0,.92-.09,1.35-.27.43-.18.82-.43,1.15-.76.33-.33.59-.71.78-1.14.18-.43.28-.88.29-1.35h0ZM15.36,23.56h-.86c-.1-.56-.23-1.13-.3-1.69-.01-.18-.08-.34-.2-.47-.12-.14-.26-.22-.44-.26-.39-.12-.77-.28-1.14-.47-.17-.11-.36-.16-.56-.15-.2.01-.39.08-.54.21-.42.32-.87.6-1.33.92-.19-.24-.35-.46-.55-.73.24-.33.54-.79.88-1.22.13-.15.21-.32.22-.51s-.03-.38-.13-.54c-.2-.38-.36-.78-.49-1.19-.04-.17-.12-.32-.26-.44-.13-.12-.29-.18-.47-.2-.55-.08-1.1-.21-1.67-.32v-.86c.54-.09,1.08-.2,1.61-.26.2,0,.37-.08.52-.2.15-.13.25-.29.28-.48.13-.41.3-.81.51-1.18.09-.15.14-.32.13-.5,0-.18-.07-.34-.18-.48-.23-.31-.41-.64-.66-.93-.28-.33-.29-.6.08-.85.08-.07.16-.14.24-.22.45.32.9.62,1.33.96.15.13.32.2.52.21.2.01.38-.04.54-.15.36-.2.75-.35,1.15-.46.18-.03.34-.12.47-.26s.2-.3.21-.49c.09-.54.2-1.08.31-1.64h.87c.1.59.21,1.15.29,1.73.02.16.08.3.18.42.1.12.24.2.39.25.42.14.83.31,1.23.52.17.1.35.15.54.14.2-.01.37-.09.52-.21.42-.32.86-.62,1.35-.97.19.24.36.46.56.7-.28.39-.58.85-.91,1.27-.14.15-.21.33-.22.54-.01.2.04.39.15.56.19.37.35.75.46,1.15.04.17.12.32.25.44.13.12.29.18.47.2.56.08,1.11.19,1.69.3v.85c-.54.1-1.09.22-1.64.29-.2.01-.37.08-.52.21-.15.13-.24.29-.28.48-.12.38-.27.75-.46,1.09-.11.17-.17.36-.15.56.01.21.08.39.22.54.32.42.61.86.97,1.37-.23.17-.45.34-.71.53-.4-.28-.87-.6-1.31-.93-.14-.12-.31-.19-.5-.2-.19-.01-.36.03-.52.12-.38.2-.78.37-1.19.5-.17.04-.32.12-.44.25-.12.13-.19.29-.2.47-.09.55-.19,1.11-.29,1.69h0ZM16.65,24.18c.08-.51.17-1.01.26-1.52.04-.12.1-.23.18-.33.09-.1.19-.17.31-.22.12-.05.24-.07.37-.07.13,0,.25.04.36.1.41.28.81.58,1.22.86.57.4.77.39,1.26-.08.39-.38.77-.77,1.17-1.15.08-.06.15-.14.21-.23.05-.09.08-.19.09-.3,0-.11,0-.21-.04-.31-.03-.1-.09-.19-.16-.27-.31-.43-.62-.86-.92-1.29-.06-.12-.09-.24-.1-.37,0-.13.02-.26.07-.38.05-.12.13-.22.23-.31.1-.09.21-.15.34-.18.52-.08,1.04-.19,1.57-.27.1,0,.19-.02.28-.06s.16-.1.23-.17c.06-.07.11-.15.14-.25.03-.09.04-.19.03-.28,0-.61,0-1.23.01-1.84.01-.1,0-.2-.03-.3-.03-.1-.08-.18-.14-.26-.07-.08-.14-.14-.24-.18-.09-.04-.19-.07-.29-.07-.53-.08-1.05-.17-1.57-.27-.12-.04-.23-.1-.32-.19-.09-.09-.16-.19-.21-.31-.05-.12-.07-.24-.07-.37s.03-.25.09-.36c.3-.44.61-.88.93-1.29.14-.16.21-.35.21-.56-.03-.22-.13-.4-.3-.54-1.41-1.44-1.55-1.47-1.69-1.47-.47.05-.88.24-1.24.55-.37.26-.45.3-.65.46-.12.07-.24.11-.38.12-.14.01-.27-.01-.39-.06-.13-.05-.23-.13-.32-.24-.09-.1-.15-.22-.18-.36-.08-.51-.17-1.02-.24-1.52,0-.1-.03-.2-.07-.29-.04-.09-.1-.17-.18-.24-.08-.07-.16-.12-.26-.15-.1-.03-.2-.04-.3-.03-.58,0-1.16,0-1.74,0-.6,0-.79.17-.89.77-.08.49-.16.98-.26,1.47-.04.12-.11.23-.2.32s-.19.16-.31.21c-.12.05-.24.07-.37.07-.13,0-.25-.03-.36-.09-.41-.28-.8-.59-1.21-.87-.55-.39-.75-.37-1.22.07-.41.39-.8.8-1.2,1.19-.17.13-.26.3-.28.51-.02.21.04.4.18.56.3.44.61.87.9,1.31.06.12.09.25.09.39,0,.14-.03.27-.09.39-.06.12-.14.23-.25.31-.11.09-.23.14-.36.17-.51.07-1.02.15-1.52.24-.1,0-.19.03-.28.07-.09.04-.16.1-.22.18-.06.07-.11.16-.13.25-.03.09-.03.19-.02.28,0,.6,0,1.2-.01,1.8-.01.1,0,.21.02.31.03.1.08.19.15.27s.15.14.24.19c.09.05.2.07.3.08.5.08,1.02.15,1.51.28.2.08.37.21.48.4.13.17.18.36.16.58-.02.21-.12.39-.29.52-.3.33-.53.73-.79,1.08-.12.14-.18.3-.17.48.01.18.09.34.23.46.42.43.84.86,1.26,1.28.06.1.14.18.24.24.1.06.21.1.32.11.11.01.23,0,.33-.04.11-.04.2-.1.28-.18.42-.29.84-.59,1.27-.88.12-.06.24-.09.38-.09.13,0,.26.02.38.07s.22.13.31.23c.09.1.15.21.19.34.09.54.19,1.08.28,1.62.01.19.09.35.24.48.15.13.32.18.51.16.61,0,1.23,0,1.84,0,.53,0,.72-.19.82-.73ZM11,33.4h-2.68v-2.57h2.68v2.57ZM11.84,29.17h-4.35c-.23,0-.43.08-.59.25-.16.16-.25.36-.25.59v4.24c0,.23.08.43.25.59.16.16.36.25.59.25h4.35c.23,0,.43-.08.59-.25.16-.16.25-.36.25-.59v-4.24c0-.23-.08-.43-.25-.59s-.36-.24-.59-.24ZM30.56,40.78c0,.23-.08.43-.25.59-.16.16-.36.25-.59.25h-13.23c-.23,0-.43-.08-.59-.25-.16-.16-.25-.36-.25-.59s.08-.43.25-.59c.16-.16.36-.25.59-.25h13.23c.23,0,.43.08.59.25s.24.36.25.59h0ZM11,41.87h-2.68v-2.56h2.68v2.56ZM11.84,37.64h-4.35c-.23,0-.43.08-.59.25s-.25.36-.25.59v4.24c0,.23.08.43.25.59.16.16.36.25.59.25h4.35c.23,0,.43-.08.59-.25s.25-.36.25-.59v-4.24c0-.23-.08-.43-.25-.59-.16-.16-.36-.25-.59-.25ZM30.56,32.27c0,.23-.08.43-.25.59-.16.16-.36.25-.59.25h-13.23c-.23,0-.43-.08-.59-.25-.16-.16-.25-.36-.25-.59s.08-.43.25-.59c.16-.16.36-.25.59-.25h13.23c.23,0,.43.08.59.25.16.16.24.36.24.59ZM50.34,17.19l-2.56-1.34.73-1.39,2.56,1.34-.73,1.39ZM40.58,35.83l-1.2-.63-1.36-.71,3.82-7.29s0,0,0-.01l5.16-9.87,2.56,1.34-8.99,17.17ZM37.66,36.18l1.74.91-1.87,1.46.13-2.37ZM40.24,50.28H2.7V3.4h25.74v11.49c0,.23.08.43.25.59.16.16.36.25.59.25h10.97v10.95l-4.16,8.11h0s-.31,5.51-.31,5.51c0,.17.03.32.11.47.08.14.2.25.35.33.15.07.31.1.47.08.17-.02.31-.09.44-.2l3.1-2.42v11.72ZM30.11,4.65l9.01,9.41h-9.01V4.65ZM52.57,14.71l-4.03-2.11c-.2-.11-.42-.12-.63-.05-.22.07-.38.2-.49.41l-5.51,10.52v-8.59c0-.07-.02-.14-.04-.2,0-.03-.01-.07-.02-.1-.04-.1-.1-.2-.18-.28L29.92,2.04c-.17-.2-.38-.3-.64-.31H1.86c-.23,0-.43.08-.59.25-.16.16-.25.36-.25.59v48.54c0,.23.08.43.25.59.16.16.36.25.59.25h39.22c.23,0,.43-.08.59-.25s.25-.36.25-.59v-14.16s-.01-.04-.01-.06l9.53-18.2,1.5-2.86c.11-.2.13-.42.06-.64s-.21-.38-.41-.49Z"/>
</svg>