<?xml version="1.0" encoding="UTF-8"?>
<svg id="Layer_1" xmlns="http://www.w3.org/2000/svg" width="54" height="54" viewBox="0 0 54 54">
  <path d="M39.27,29.03l.35-.35.39.39c-.25,0-.5-.02-.74-.05ZM33.91,30.42c-1.74.62-3.5,1.75-3.99,2.08l-.04-.04c.33-.49,1.46-2.25,2.08-3.99.29-.8.54-2.02.74-3.21.38.99.96,1.9,1.73,2.67.78.78,1.7,1.36,2.7,1.74-1.19.2-2.42.46-3.23.75h0ZM33.28,22.35l.2.2-.2.2c0-.13,0-.27,0-.4ZM33.66,19.52l1.43,1.43-1.29,1.29-.51-.51c.04-.73.17-1.47.38-2.21ZM45.5,10.54l-.32.32-.36-.36c.23,0,.46.01.69.04ZM50.43,13.3l-1.41,1.41-1.55-1.55,1.38-1.38c.34.23.66.49.96.79.23.23.44.48.63.73ZM51.86,17.55l-.55-.55.46-.46c.05.33.08.67.09,1.01ZM41.23,27.08l1.55,1.55-.12.12c-.68.18-1.36.29-2.02.33l-.7-.7,1.29-1.29h0ZM48.33,23.82l1.31-1.31.58.58c-.32.52-.69,1.02-1.11,1.51l-.78-.78h0ZM45.16,27.77c-.47.25-.94.46-1.42.63l1.03-1.03.39.39ZM45.08,27.07l1.31-1.31.73.73c-.51.4-1.03.75-1.57,1.06l-.48-.48h0ZM44.4,27.01l-1.31,1.31-1.55-1.55,1.31-1.31,1.55,1.55ZM46.03,25.38l-1.31,1.31-1.55-1.55,1.31-1.31,1.55,1.55ZM47.65,23.76l-1.31,1.31-1.55-1.55,1.31-1.31,1.55,1.55ZM48.03,20.27l1.31-1.31,1.55,1.55-1.31,1.31-1.55-1.55h0ZM49.27,22.14l-1.31,1.31-1.55-1.55,1.31-1.31,1.55,1.55ZM48.39,25.38c-.29.29-.6.57-.91.83l-.77-.77,1.31-1.31.79.79c-.14.15-.27.31-.42.46h0ZM50.46,22.69l-.5-.5,1.31-1.31.02.02c-.22.6-.49,1.2-.83,1.79ZM51.62,19.79l-.41.41-1.55-1.55,1.33-1.33.85.85c-.03.54-.1,1.08-.23,1.63ZM49.38,15.08l1.35-1.35c.43.67.73,1.41.92,2.19l-.71.71-1.55-1.55ZM39.25,28.32l-.62.62c-.81-.16-1.57-.44-2.25-.85l1.32-1.32,1.55,1.55h0ZM47.74,16.73l1.33-1.33,1.55,1.55-1.33,1.33-1.55-1.55ZM46.11,18.35l1.31-1.31,1.55,1.55-1.31,1.31-1.55-1.55h0ZM44.49,19.97l1.31-1.31,1.55,1.55-1.31,1.31-1.55-1.55ZM42.87,21.6l1.31-1.31,1.55,1.55-1.31,1.31-1.55-1.55ZM41.24,23.22l1.31-1.31,1.55,1.55-1.31,1.31-1.55-1.55ZM40.86,26.71l-1.29,1.29-1.55-1.55,1.29-1.29,1.55,1.55ZM39.62,24.85l1.31-1.31,1.55,1.55-1.31,1.31-1.55-1.55ZM35.78,24.84l1.55,1.55-1.4,1.4c-.26-.19-.51-.39-.74-.62-.3-.3-.55-.63-.77-.97l1.36-1.36h0ZM35.41,24.47l-1.27,1.27c-.39-.71-.65-1.5-.77-2.33l.49-.49,1.55,1.55ZM45.54,11.24l.59-.59c.8.16,1.56.44,2.26.84l-1.3,1.3-1.55-1.55h0ZM37.01,22.87l-1.29,1.29-1.55-1.55,1.29-1.29,1.55,1.55ZM38.64,21.24l-1.31,1.31-1.55-1.55,1.31-1.31,1.55,1.55ZM40.26,19.62l-1.31,1.31-1.55-1.55,1.31-1.31,1.55,1.55ZM41.89,17.99l-1.31,1.31-1.55-1.55,1.31-1.31,1.55,1.55ZM43.51,16.37l-1.31,1.31-1.55-1.55,1.31-1.31,1.55,1.55ZM43.9,12.88l1.33-1.33,1.55,1.55-1.33,1.33-1.55-1.55ZM45.13,14.75l-1.31,1.31-1.55-1.55,1.31-1.31,1.55,1.55ZM47.37,16.36l-1.55-1.55,1.33-1.33,1.55,1.55-1.33,1.33ZM38.94,24.79l-1.29,1.29-1.55-1.55,1.29-1.29,1.55,1.55ZM40.56,23.17l-1.31,1.31-1.55-1.55,1.31-1.31,1.55,1.55ZM42.18,21.54l-1.31,1.31-1.55-1.55,1.31-1.31,1.55,1.55ZM43.81,19.92l-1.31,1.31-1.55-1.55,1.31-1.31,1.55,1.55ZM44.19,16.43l1.31-1.31,1.55,1.55-1.31,1.31-1.55-1.55ZM45.43,18.29l-1.31,1.31-1.55-1.55,1.31-1.31,1.55,1.55ZM35.17,17.77l1.55,1.55-1.31,1.31-1.55-1.55,1.31-1.31ZM34.8,17.4l-.58.58c.12-.26.24-.52.38-.79l.2.2ZM36.42,15.78l-1.31,1.31-.29-.29c.31-.54.66-1.06,1.06-1.57l.55.55ZM39.67,11.91c.41-.24.83-.44,1.24-.62l-.93.93-.31-.31ZM39.67,12.53l-1.31,1.31-.59-.59c.49-.42,1-.79,1.51-1.11l.39.39ZM41.97,10.96l.09-.09c.72-.21,1.43-.32,2.13-.35l.66.66-1.33,1.33-1.55-1.55ZM40.35,12.59l1.31-1.31,1.55,1.55-1.31,1.31-1.55-1.55h0ZM38.73,14.21l1.31-1.31,1.55,1.55-1.31,1.31-1.55-1.55ZM38.34,17.7l-1.31,1.31-1.55-1.55,1.31-1.31,1.55,1.55ZM37.1,15.83l1.31-1.31,1.55,1.55-1.31,1.31-1.55-1.55ZM36.98,13.97c.15-.15.31-.28.46-.42l.61.61-1.31,1.31-.58-.58c.26-.31.53-.62.83-.91h0ZM49.29,26.28c4.55-4.55,4.91-10.84,1.27-14.48-3.64-3.64-9.93-3.28-14.48,1.27-2.43,2.43-3.77,5.45-3.94,8.31l-.1-.03s-.52,4.69-1.19,6.57c-.53,1.47-1.48,3.02-1.88,3.63l-.23-.23-8.24,8.24h-.79s-.7.71-.7.71l3.19,3.19.76-.76-.08-.9,8.17-8.17-.19-.19c.61-.4,2.15-1.35,3.63-1.88,1.88-.67,6.53-1.19,6.57-1.19l-.03-.12c2.85-.18,5.87-1.52,8.29-3.94h0Z"/>
  <path d="M20.73,23.09l-.35-.35.39-.39c0,.25-.02.5-.05.74ZM22.12,28.46c.62,1.74,1.75,3.5,2.08,3.99l-.04.04c-.49-.33-2.25-1.46-3.99-2.08-.8-.29-2.02-.54-3.21-.74.99-.38,1.9-.96,2.67-1.73.78-.78,1.36-1.7,1.74-2.7.2,1.19.46,2.42.75,3.23h0ZM14.05,29.08l.2-.2.2.2c-.13,0-.27,0-.4,0ZM11.22,28.7l1.43-1.43,1.29,1.29-.51.51c-.72-.04-1.47-.17-2.21-.38ZM2.24,16.87l.32.32-.36.36c0-.23.01-.46.04-.69ZM5,11.93l1.41,1.41-1.55,1.55-1.38-1.38c.23-.34.49-.66.79-.96.23-.23.48-.44.73-.63ZM9.25,10.5l-.55.55-.46-.46c.33-.05.67-.08,1.01-.09ZM18.78,21.14l1.55-1.55.12.12c.18.68.29,1.36.33,2.02l-.7.7-1.29-1.29h0ZM15.52,14.03l-1.31-1.31.58-.58c.52.32,1.02.69,1.51,1.11l-.78.78h0ZM19.47,17.2c.25.47.46.94.63,1.42l-1.03-1.03.39-.39ZM18.77,17.28l-1.31-1.31.73-.73c.4.51.75,1.03,1.06,1.57l-.48.48h0ZM18.71,17.96l1.31,1.31-1.55,1.55-1.31-1.31,1.55-1.55ZM17.08,16.34l1.31,1.31-1.55,1.55-1.31-1.31,1.55-1.55ZM15.46,14.71l1.31,1.31-1.55,1.55-1.31-1.31,1.55-1.55ZM11.97,14.33l-1.31-1.31,1.55-1.55,1.31,1.31-1.55,1.55h0ZM13.84,13.09l1.31,1.31-1.55,1.55-1.31-1.31,1.55-1.55ZM17.08,13.97c.29.29.57.6.83.91l-.77.77-1.31-1.31.79-.79c.15.14.31.27.46.42ZM14.39,11.91l-.5.5-1.31-1.31.02-.02c.6.22,1.2.49,1.79.83ZM11.49,10.75l.41.41-1.55,1.55-1.33-1.33.85-.85c.54.03,1.08.1,1.63.23h0ZM6.78,12.98l-1.35-1.35c.67-.43,1.41-.73,2.19-.92l.71.71-1.55,1.55h0ZM20.02,23.11l.62.62c-.16.81-.44,1.57-.85,2.25l-1.32-1.32,1.55-1.55h0ZM8.43,14.62l-1.33-1.33,1.55-1.55,1.33,1.33-1.55,1.55ZM10.05,16.25l-1.31-1.31,1.55-1.55,1.31,1.31-1.55,1.55h0ZM11.67,17.87l-1.31-1.31,1.55-1.55,1.31,1.31-1.55,1.55ZM13.3,19.5l-1.31-1.31,1.55-1.55,1.31,1.31-1.55,1.55ZM14.92,21.12l-1.31-1.31,1.55-1.55,1.31,1.31-1.55,1.55ZM18.41,21.5l1.29,1.29-1.55,1.55-1.29-1.29,1.55-1.55ZM16.55,22.75l-1.31-1.31,1.55-1.55,1.31,1.31-1.55,1.55ZM16.54,26.58l1.55-1.55,1.4,1.4c-.19.26-.39.51-.62.74-.3.3-.63.55-.97.77l-1.36-1.36ZM16.17,26.95l1.27,1.27c-.71.39-1.5.65-2.33.77l-.49-.49,1.55-1.55ZM2.94,16.82l-.59-.59c.16-.8.44-1.56.84-2.26l1.3,1.3-1.55,1.55h0ZM14.57,25.35l1.29,1.29-1.55,1.55-1.29-1.29,1.55-1.55ZM12.94,23.72l1.31,1.31-1.55,1.55-1.31-1.31,1.55-1.55ZM11.32,22.1l1.31,1.31-1.55,1.55-1.31-1.31,1.55-1.55ZM9.7,20.48l1.31,1.31-1.55,1.55-1.31-1.31,1.55-1.55ZM8.07,18.85l1.31,1.31-1.55,1.55-1.31-1.31,1.55-1.55ZM4.58,18.47l-1.33-1.33,1.55-1.55,1.33,1.33-1.55,1.55ZM6.45,17.23l1.31,1.31-1.55,1.55-1.31-1.31,1.55-1.55ZM8.06,14.99l-1.55,1.55-1.33-1.33,1.55-1.55,1.33,1.33ZM16.49,23.43l1.29,1.29-1.55,1.55-1.29-1.29,1.55-1.55ZM14.87,21.8l1.31,1.31-1.55,1.55-1.31-1.31,1.55-1.55ZM13.24,20.18l1.31,1.31-1.55,1.55-1.31-1.31,1.55-1.55ZM11.62,18.55l1.31,1.31-1.55,1.55-1.31-1.31,1.55-1.55ZM8.13,18.17l-1.31-1.31,1.55-1.55,1.31,1.31-1.55,1.55h0ZM9.99,16.93l1.31,1.31-1.55,1.55-1.31-1.31,1.55-1.55ZM9.47,27.2l1.55-1.55,1.31,1.31-1.55,1.55-1.31-1.31ZM9.1,27.57l.58.58c-.26-.12-.53-.24-.79-.38l.2-.2ZM7.48,25.94l1.31,1.31-.29.29c-.54-.31-1.06-.66-1.57-1.06l.55-.55ZM3.61,22.69c-.24-.41-.44-.83-.62-1.24l.93.93-.31.31ZM4.23,22.69l1.31,1.31-.59.59c-.42-.49-.79-1-1.11-1.51l.39-.39ZM2.66,20.39l-.09-.09c-.21-.72-.32-1.43-.35-2.13l.66-.66,1.33,1.33-1.55,1.55ZM4.29,22.01l-1.31-1.31,1.55-1.55,1.31,1.31-1.55,1.55h0ZM5.91,23.64l-1.31-1.31,1.55-1.55,1.31,1.31-1.55,1.55ZM9.4,24.02l1.31,1.31-1.55,1.55-1.31-1.31,1.55-1.55ZM7.54,25.26l-1.31-1.31,1.55-1.55,1.31,1.31-1.55,1.55ZM5.67,25.38c-.15-.15-.28-.31-.42-.46l.61-.61,1.31,1.31-.58.58c-.31-.26-.62-.53-.91-.83h0ZM17.98,13.07c-4.55-4.55-10.84-4.91-14.48-1.27C-.14,15.44.22,21.73,4.77,26.28c2.43,2.43,5.45,3.77,8.31,3.94l-.03.1s4.69.52,6.57,1.19c1.47.53,3.02,1.48,3.63,1.88l-.23.23,8.24,8.24v.79s.71.7.71.7l3.19-3.19-.76-.76-.9.08-8.17-8.17-.19.19c-.4-.61-1.35-2.15-1.88-3.63-.67-1.88-1.19-6.53-1.19-6.57l-.12.03c-.18-2.85-1.52-5.87-3.94-8.29h0Z"/>
</svg>