<?xml version="1.0" encoding="UTF-8"?>
<svg id="Layer_1" xmlns="http://www.w3.org/2000/svg" width="54" height="54" viewBox="0 0 54 54">
  <path d="M18.42,3.98c-.96,0-1.9.09-2.84.28-.94.19-1.85.46-2.73.83-.88.37-1.72.81-2.52,1.34-.79.53-1.53,1.13-2.21,1.81-.68.68-1.28,1.41-1.81,2.21-.53.79-.98,1.63-1.34,2.52-.37.88-.64,1.79-.83,2.73-.19.94-.28,1.88-.28,2.84s.09,1.9.28,2.84c.19.94.46,1.85.83,2.73s.81,1.72,1.34,2.52c.53.79,1.13,1.53,1.81,2.21.68.68,1.41,1.28,2.21,1.81.79.53,1.63.98,2.52,1.34s1.79.64,2.73.83c.94.19,1.88.28,2.84.28s1.9-.09,2.84-.28c.94-.19,1.85-.46,2.73-.83.88-.37,1.72-.81,2.52-1.34.79-.53,1.53-1.13,2.21-1.81.68-.68,1.28-1.41,1.81-2.21.53-.79.98-1.63,1.34-2.52s.64-1.79.83-2.73c.19-.94.28-1.88.28-2.84,0-.96-.1-1.9-.28-2.84-.19-.94-.46-1.85-.83-2.73-.37-.88-.81-1.72-1.35-2.51s-1.13-1.53-1.81-2.2-1.41-1.28-2.2-1.81c-.79-.53-1.63-.98-2.51-1.35-.88-.37-1.79-.64-2.73-.83-.94-.19-1.88-.28-2.84-.28h0ZM18.42,35.96C8.81,35.96,1,28.14,1,18.54S8.81,1.12,18.42,1.12s17.42,7.81,17.42,17.42-7.81,17.42-17.42,17.42Z"/>
  <path d="M31,37.84c-.32,0-.62-.09-.89-.27s-.47-.42-.59-.72-.16-.61-.09-.93.21-.59.44-.82l4.44-4.47c.15-.17.32-.3.52-.39.2-.09.41-.15.63-.15.22,0,.43.03.64.11.21.08.39.2.54.35.16.16.28.34.36.54.08.2.12.42.12.64,0,.22-.05.43-.15.63-.09.2-.22.37-.38.52l-4.44,4.47c-.31.32-.69.48-1.14.48Z"/>
  <path d="M50.25,52.88c-.77,0-1.43-.27-1.97-.83l-11.8-12.09c-.25-.26-.45-.56-.59-.9-.14-.34-.2-.69-.2-1.06,0-.36.08-.71.22-1.05.14-.34.35-.63.61-.89.26-.25.56-.45.9-.59.34-.14.69-.2,1.06-.2s.71.08,1.05.22c.34.14.63.35.89.61l11.8,12.09c.39.4.63.87.73,1.41.1.54.05,1.07-.17,1.58s-.55.92-1.01,1.22c-.46.31-.97.46-1.52.46h0Z"/>
  <path d="M18.39,30.81c-2.24,0-5.21-.64-8.38-3.08-2.79-2.14-4.07-5.44-3.72-9.53.17-1.89.62-3.72,1.35-5.47.1-.22.26-.36.48-.45.22-.08.44-.08.66.02.22.1.37.26.45.48.08.22.08.44-.02.66-.65,1.59-1.06,3.25-1.21,4.96-.29,3.51.73,6.19,3.06,7.98,5.73,4.41,10.63,2.13,10.68,2.11.21-.11.44-.13.66-.05.23.08.39.22.5.44.1.22.12.44.03.67-.08.23-.23.39-.45.49-.12.06-1.69.8-4.09.8Z"/>
</svg>