<?xml version="1.0" encoding="UTF-8"?>
<svg id="Layer_1" xmlns="http://www.w3.org/2000/svg" width="54" height="54" viewBox="0 0 54 54">
  <path d="M34.34,31.45v-2.14h-14.68v2.14h14.68ZM34.34,26.54v-2.08h-14.68v2.08h14.68ZM39.31,42.14c0,.29-.23.52-.52.52H15.21c-.29,0-.52-.23-.52-.52V11.92c0-.29.23-.52.52-.52h14.68v8.96c0,.29.23.52.52.52h8.96v21.26h-.06ZM38.56,18.22h-6.12v-6.12l6.12,6.12ZM27,1C12.61,1,1,12.61,1,27s11.61,26,26,26,26-11.61,26-26S41.39,1,27,1ZM34.34,36.3v-2.14h-14.68v2.14h14.68ZM22.44,21.22c1.16,0,2.08-.92,2.08-2.08s-.92-2.08-2.08-2.08-2.08.92-2.08,2.08.92,2.08,2.08,2.08Z"/>
</svg>