<?xml version="1.0" encoding="UTF-8"?>
<svg id="Layer_1" xmlns="http://www.w3.org/2000/svg" width="48.75" height="48.19" viewBox="0 0 48.75 48.19">
  <path d="M16.23,2.67c-.89,0-1.77.09-2.64.26-.87.17-1.72.43-2.54.77-.82.34-1.6.76-2.34,1.25-.74.49-1.42,1.06-2.05,1.68-.63.63-1.19,1.31-1.68,2.05-.49.74-.91,1.52-1.25,2.34-.34.82-.6,1.67-.77,2.54-.17.87-.26,1.75-.26,2.64s.09,1.77.26,2.64c.17.87.43,1.72.77,2.54s.76,1.6,1.25,2.34c.49.74,1.06,1.42,1.68,2.05.63.63,1.31,1.19,2.05,1.68.74.49,1.52.91,2.34,1.25s1.67.6,2.54.77c.87.17,1.75.26,2.64.26s1.77-.09,2.64-.26c.87-.17,1.72-.43,2.54-.77.82-.34,1.6-.76,2.34-1.25.74-.49,1.42-1.06,2.05-1.68.63-.63,1.19-1.31,1.68-2.05.49-.74.91-1.52,1.25-2.34s.6-1.67.77-2.54c.17-.87.26-1.75.26-2.64,0-.89-.09-1.77-.26-2.64-.17-.87-.43-1.72-.77-2.54-.34-.82-.76-1.6-1.25-2.34s-1.06-1.42-1.68-2.05-1.31-1.19-2.05-1.68c-.74-.49-1.52-.91-2.34-1.25-.82-.34-1.67-.6-2.54-.77-.87-.17-1.75-.26-2.64-.26h0ZM16.23,32.43C7.29,32.43.02,25.16.02,16.22S7.29,0,16.23,0s16.22,7.27,16.22,16.22-7.27,16.22-16.22,16.22Z"/>
  <path d="M27.94,34.18c-.3,0-.58-.08-.83-.25s-.43-.39-.55-.67-.14-.57-.09-.86.19-.55.41-.76l4.13-4.16c.14-.15.3-.28.48-.36.19-.09.38-.14.59-.14.21,0,.4.03.6.1.19.07.36.18.51.33.15.14.26.31.33.5.08.19.11.39.11.59,0,.21-.05.4-.14.59-.09.19-.21.35-.36.49l-4.13,4.16c-.29.3-.64.45-1.06.45Z"/>
  <path d="M45.86,48.19c-.72,0-1.33-.26-1.83-.77l-10.99-11.25c-.24-.24-.42-.52-.55-.84-.13-.32-.19-.64-.18-.98,0-.34.07-.67.21-.98.13-.31.32-.59.56-.82.24-.24.52-.42.84-.55.32-.13.64-.19.98-.18s.67.07.98.21c.31.13.59.32.82.56l10.99,11.25c.36.37.59.81.68,1.31.1.51.04,1-.16,1.47s-.51.85-.94,1.14c-.43.28-.9.43-1.42.43h0Z"/>
  <path d="M16.21,27.64c-2.09,0-4.85-.6-7.8-2.87-2.59-1.99-3.79-5.06-3.46-8.87.16-1.76.58-3.46,1.26-5.09.09-.2.24-.34.45-.42.21-.08.41-.07.61.02.2.09.34.24.42.44.08.21.07.41-.01.61-.61,1.48-.98,3.02-1.13,4.62-.27,3.26.68,5.76,2.84,7.42,5.33,4.11,9.89,1.98,9.94,1.96.2-.1.41-.12.62-.04.21.07.37.21.46.41.1.2.11.41.03.62-.08.21-.22.36-.42.46-.11.06-1.58.74-3.81.74Z"/>
</svg>