<?xml version="1.0" encoding="UTF-8"?>
<svg id="Layer_1" xmlns="http://www.w3.org/2000/svg" width="54" height="54" viewBox="0 0 54 54">
  <defs>
    <style>
      .cls-1 {
        fill-rule: evenodd;
      }
    </style>
  </defs>
  <path class="cls-1" d="M36.09,39.47c0,1.21.04,2.41-.01,3.62-.05,1.32-.86,2.09-2.11,2.12-1.23.03-2.22-.72-2.24-1.99-.07-3.53-.07-7.07,0-10.6.02-1.19.99-1.97,2.27-2,1.59-.04,3.19-.04,4.78,0,.76.02,1.1-.1,1.16-1.02.16-2.23.54-4.43,1.21-6.57.81-2.61,3.08-4.28,5.79-4.26,1.89.01,2.71,1.09,2.21,2.98-.76,2.86-1.55,5.71-2.34,8.56q-1.27,4.58-6.08,4.58c-1.12,0-2.25.06-3.36-.02-.97-.07-1.41.16-1.31,1.25.1,1.11.02,2.24.02,3.36h0Z"/>
  <path class="cls-1" d="M22.31,37.92c0,1.64.02,3.28,0,4.91-.02,1.5-.93,2.41-2.29,2.38-1.31-.03-2.11-.9-2.12-2.39-.02-2.24-.05-4.48.02-6.72.03-.93-.16-1.28-1.18-1.24-1.94.09-3.88.04-5.82.02-1.73-.02-2.68-.74-3.15-2.45-1.01-3.64-2.01-7.28-2.97-10.93-.43-1.63.42-2.69,2.11-2.73,2.84-.07,5.26,1.68,6.04,4.48.57,2.03.99,4.1,1.08,6.21.04.86.26,1.23,1.19,1.17,1.37-.08,2.76-.03,4.14-.02,2.22,0,2.95.74,2.96,2.91,0,1.47,0,2.93,0,4.4Z"/>
  <path class="cls-1" d="M27.15,16.44c1.33,0,2.67-.01,4,0,2.34.03,4.04,1.71,4.11,4.06.01.34,0,.69,0,1.03,0,1.72,0,1.67-1.66,1.73-.87.03-1.27-.16-1.16-1.11.05-.41.25-1.16-.37-1.18-.69-.03-.46.73-.4,1.13.14,1.02-.29,1.2-1.21,1.17-2.24-.07-4.48-.07-6.71,0-.92.03-1.25-.26-1.11-1.15.03-.21.01-.43,0-.64-.02-.26-.08-.57-.4-.55-.28.02-.42.26-.4.56,0,.04,0,.09,0,.13-.08.53.28,1.36-.21,1.54-.68.25-1.52.08-2.3.09-.27,0-.38-.15-.37-.4.06-1.32-.27-2.7.32-3.95.71-1.51,1.92-2.4,3.63-2.44,1.42-.03,2.84,0,4.26,0Z"/>
  <path class="cls-1" d="M27.23,27.32c-3.54,0-7.07-.05-10.61.03-1.07.02-1.08-.48-1-1.23.07-.68-.38-1.53,1-1.52,7.03.06,14.06.06,21.08,0,1.21-.01.94.69.91,1.31-.03.61.42,1.47-.91,1.44-3.49-.08-6.98-.03-10.48-.03Z"/>
  <path class="cls-1" d="M41.51,38.97c-.73,0-1.47,0-2.2,0-.76,0-1.28-.35-1.31-1.11-.04-.84.54-1.08,1.28-1.08,1.21,0,2.41,0,3.62,0,2.73-.01,4.34-1.22,5.06-3.86.95-3.43,1.88-6.86,2.79-10.3.21-.79.55-1.47,1.47-1.2.88.26.87,1,.65,1.8-.93,3.44-1.78,6.89-2.73,10.32-.97,3.49-3.59,5.42-7.21,5.43-.47,0-.95,0-1.42,0Z"/>
  <path class="cls-1" d="M12.37,38.97c-.88-.07-1.9.04-2.94-.16-2.87-.57-4.69-2.28-5.49-5-1.02-3.5-1.9-7.04-2.82-10.57-.2-.75-.26-1.57.67-1.82.92-.26,1.26.42,1.47,1.21.9,3.4,1.84,6.79,2.75,10.19.71,2.66,2.36,3.95,5.12,3.96,1.21,0,2.41,0,3.62,0,.74,0,1.35.27,1.31,1.07-.04.72-.56,1.13-1.33,1.12-.73,0-1.47,0-2.35,0Z"/>
  <path class="cls-1" d="M48.98,13.99c0,1.96-1.57,3.52-3.52,3.51-1.96,0-3.5-1.57-3.5-3.54,0-1.96,1.56-3.5,3.53-3.49,1.97,0,3.49,1.54,3.49,3.52Z"/>
  <path class="cls-1" d="M12.02,13.89c.02,1.98-1.5,3.56-3.45,3.6-1.89.04-3.56-1.58-3.61-3.49-.05-1.96,1.59-3.55,3.63-3.55,1.92,0,3.41,1.5,3.43,3.44Z"/>
  <path class="cls-1" d="M30.37,12.02c0,1.85-1.4,3.25-3.25,3.23-1.81-.01-3.28-1.49-3.26-3.28.03-1.71,1.5-3.17,3.23-3.2,1.82-.03,3.27,1.41,3.28,3.24Z"/>
</svg>