<?xml version="1.0" encoding="UTF-8"?>
<svg id="Layer_1" xmlns="http://www.w3.org/2000/svg" width="54" height="54" viewBox="0 0 54 54">
  <path d="M3.19,27c0,13.15,10.66,23.81,23.81,23.81s23.81-10.66,23.81-23.81S40.15,3.19,27,3.19,3.19,13.85,3.19,27M30.23,30.51l5.01-3.11v19.6c-1.59.65-3.26,1.13-5.01,1.39v-17.88ZM12.01,26.84l5.01-3.11v22.47c-1.84-.96-3.53-2.17-5.01-3.6v-15.76ZM5.36,27C5.36,15.05,15.05,5.36,27,5.36s21.64,9.69,21.64,21.64c0,5.52-2.07,10.56-5.48,14.38v-11.52l-6.74-4.56-7.36,4.56v18.68c-.68.06-1.36.1-2.06.1s-1.38-.04-2.06-.1v-22.35l-6.74-4.56-7.36,4.56v15.2c-3.4-3.82-5.48-8.86-5.48-14.38ZM39.46,15.43v10.87l-3.06-1.98-5.79,3.6-.98.61-.57.35V12.21l-6.59,4.08v7.17l-1.55-1.05v-6.99l9.68-6,8.86,6ZM27,1C12.64,1,1,12.64,1,27s11.64,26,26,26,26-11.64,26-26S41.36,1,27,1ZM27,1.94c13.84,0,25.06,11.22,25.06,25.06s-11.22,25.06-25.06,25.06S1.94,40.84,1.94,27,13.16,1.94,27,1.94Z"/>
</svg>