<?xml version="1.0" encoding="UTF-8"?>
<svg id="Layer_1" xmlns="http://www.w3.org/2000/svg" width="48.75" height="53.25" viewBox="0 0 48.75 53.25">
  <path d="M40.86,12.92c-.34,0-.61.29-.6.63.05,2.65,1.11,4.67,3.15,6.02-3.26,1.05-5.77.12-7.65-2.78-1.52-2.76-3.56-4.15-5.99-4.15-1.01,0-2.1.24-3.24.72l2.21-8.25.47-1.75c3.71-1.93,6.45-1.13,8.61,2.51,2.14,3.13,5.12,4.27,8.7,3.36-1.72,2.45-3.54,3.63-5.65,3.68ZM20.73,32.59c.05.01.11.02.16.02.27,0,.52-.18.59-.45l1.9-7.08c2.89,1.03,4.98,3.77,4.98,7.01,0,4.12-3.35,7.47-7.47,7.47s-7.47-3.35-7.47-7.47,3.35-7.47,7.47-7.47c.45,0,.88.06,1.31.13l-1.9,7.09c-.09.33.11.67.44.75ZM34.68,32.09c0,7.61-6.19,13.8-13.8,13.8s-13.8-6.19-13.8-13.8,6.19-13.8,13.8-13.8c1.01,0,2,.12,2.95.33l-1.32,4.94c-.53-.1-1.07-.16-1.63-.16-4.79,0-8.69,3.9-8.69,8.69s3.9,8.69,8.69,8.69,8.69-3.9,8.69-8.69c0-3.81-2.47-7.01-5.89-8.19l1.33-4.97c5.59,1.76,9.66,6.99,9.66,13.16ZM48.41,7.7c-.17-.2-.45-.27-.69-.16-3.83,1.57-6.74.8-8.88-2.32C36.32.95,32.8,0,28.38,2.4c0,0,0,0,0,0-.14.08-.25.21-.29.37l-3.1,11.56h0s-.83,3.1-.83,3.1c-1.05-.23-2.14-.37-3.27-.37-8.28,0-15.02,6.74-15.02,15.02s6.74,15.02,15.02,15.02,15.02-6.74,15.02-15.02c0-6.73-4.45-12.45-10.57-14.35l.75-2.81c3.81-2.01,6.54-1.24,8.6,2.49,1.64,2.53,3.73,3.8,6.24,3.8,1.28,0,2.67-.33,4.16-.99.22-.1.36-.31.37-.55,0-.24-.14-.46-.36-.56-2.21-1.03-3.39-2.67-3.6-5.01,2.65-.31,4.93-2.17,6.97-5.69.13-.23.11-.52-.07-.71Z"/>
  <path d="M40.15,25.74c-.32.1-.51.44-.41.76.53,1.81.8,3.68.8,5.58,0,10.84-8.82,19.65-19.65,19.65S1.24,42.93,1.24,32.09,10.05,12.44,20.89,12.44c.34,0,.61-.27.61-.61s-.28-.61-.61-.61C9.38,11.21.01,20.57.01,32.09s9.37,20.88,20.88,20.88,20.88-9.37,20.88-20.88c0-2.02-.29-4.01-.85-5.93-.1-.32-.44-.51-.76-.41Z"/>
</svg>