<?xml version="1.0" encoding="UTF-8"?>
<svg id="Layer_1" xmlns="http://www.w3.org/2000/svg" width="52" height="54" viewBox="0 0 52 54">
  <path d="M51.6,41.77c.13.13.23.29.3.46.07.17.1.35.1.54s-.04.37-.11.54c-.07.17-.18.32-.31.46-.13.13-.29.23-.46.3-.17.07-.35.1-.54.1-.19,0-.37-.04-.54-.11-.17-.07-.32-.18-.46-.31-.3-.28-.59-.58-.88-.87-.73-.73-1.47-1.46-2.2-2.21-.21-.2-.34-.45-.39-.74s0-.57.13-.83c.13-.28.34-.5.61-.65.27-.15.56-.21.87-.18.28.09.53.23.76.4,1.06,1.01,2.09,2.05,3.11,3.1ZM27.56,47.47c.02,1.43.02,2.87,0,4.3,0,.19-.04.37-.11.54-.07.17-.17.33-.31.46-.13.13-.29.23-.46.31-.17.07-.35.11-.54.11s-.37-.04-.54-.11c-.17-.07-.33-.17-.46-.31-.13-.13-.23-.29-.31-.46-.07-.17-.11-.35-.11-.54-.01-.71,0-1.42,0-2.13s0-1.42,0-2.13c0-.19.03-.37.1-.54s.17-.33.3-.46c.13-.13.28-.24.45-.31.17-.07.35-.11.54-.12.19,0,.37.03.54.1s.33.17.46.3.24.28.31.45.11.35.12.54h0ZM5.98,40.53c-.1.32-.25.61-.44.89-1.03,1.08-2.09,2.13-3.16,3.17-.13.12-.28.22-.45.28s-.34.1-.52.09c-.18,0-.35-.04-.52-.11-.17-.07-.31-.17-.44-.3-.13-.12-.23-.26-.31-.42-.08-.16-.12-.33-.13-.5-.01-.18.01-.35.07-.52s.14-.32.26-.45c1.06-1.11,2.15-2.2,3.26-3.26.2-.19.44-.3.71-.33.27-.03.53.01.77.15.26.12.47.3.64.54.16.24.26.5.28.78ZM46.24,14.9c-.13-.26-.18-.54-.13-.83.05-.29.18-.54.39-.74.72-.75,1.46-1.47,2.2-2.21.29-.29.58-.59.88-.87.13-.13.28-.23.45-.3.17-.07.35-.11.53-.11.18,0,.36.03.53.1s.32.17.45.29c.14.13.24.28.32.45.08.17.12.35.12.54,0,.19-.03.37-.1.54-.07.17-.17.33-.3.46-1.02,1.05-2.05,2.09-3.11,3.1-.23.18-.49.31-.76.4-.31.04-.6-.02-.87-.18-.27-.15-.47-.37-.61-.65h0ZM24.74,6.49c0-.71,0-1.42,0-2.13s-.01-1.42,0-2.13c0-.19.04-.37.11-.54.07-.17.17-.33.31-.46.13-.13.29-.23.46-.31.17-.07.35-.11.54-.11s.37.04.54.11c.17.07.33.17.46.31.13.13.23.29.31.46.07.17.11.35.11.54.02,1.43.02,2.87,0,4.3,0,.19-.04.37-.12.54-.07.17-.18.32-.31.45-.13.13-.29.23-.46.3-.17.07-.36.1-.54.1s-.37-.04-.54-.12c-.17-.07-.32-.18-.45-.31-.13-.13-.23-.29-.3-.46s-.1-.36-.1-.54h0ZM.33,11.34c-.12-.13-.2-.29-.26-.45s-.08-.34-.07-.52c.01-.18.05-.34.13-.5.08-.16.18-.3.31-.42.13-.13.27-.23.44-.3.17-.07.34-.11.52-.11.18,0,.35.03.52.09s.32.16.45.28c1.07,1.04,2.13,2.1,3.16,3.17.19.27.34.57.44.89-.02.29-.12.55-.28.79s-.38.42-.64.54c-.24.13-.5.18-.77.14-.27-.04-.51-.15-.71-.34-1.11-1.06-2.2-2.15-3.26-3.26ZM27.98,34.34c.71-.31,1.36-.71,1.95-1.21.59-.5,1.1-1.07,1.52-1.71.42-.65.74-1.34.96-2.08.22-.74.33-1.49.33-2.27,0-.77-.11-1.53-.33-2.27-.22-.74-.54-1.43-.97-2.08-.42-.64-.93-1.22-1.52-1.71-.59-.5-1.24-.9-1.95-1.21,2.78.38,5.42,1.19,7.94,2.44,2.51,1.24,4.77,2.85,6.76,4.82-1.99,1.97-4.24,3.58-6.75,4.82-2.51,1.24-5.16,2.06-7.93,2.44h0ZM24.82,32.18c-.33,0-.67-.03-1-.1-.33-.07-.65-.16-.96-.29-.31-.13-.6-.28-.88-.47-.28-.19-.54-.4-.77-.63-.24-.24-.45-.49-.63-.77-.19-.28-.34-.57-.47-.88-.13-.31-.23-.63-.29-.96-.07-.33-.1-.66-.1-1,0-.34.03-.67.1-1,.07-.33.16-.65.29-.96.13-.31.29-.6.47-.88.19-.28.4-.54.63-.77s.49-.45.77-.63c.28-.19.57-.34.88-.47s.63-.22.96-.29c.33-.07.66-.1,1-.1.34,0,.67.03,1,.1.33.07.65.16.96.29.31.13.6.29.88.47.28.19.54.4.77.63.24.24.45.49.63.77.19.28.34.57.47.88.13.31.22.63.29.96s.1.66.1,1c0,.33-.03.67-.1.99-.07.33-.16.65-.29.96-.13.31-.29.6-.47.88-.19.28-.4.54-.63.77-.24.24-.49.45-.77.63s-.57.34-.88.47-.63.23-.96.29c-.33.07-.66.1-.99.1h0ZM6.74,27.07c2.03-2,4.32-3.63,6.88-4.87,2.56-1.25,5.26-2.05,8.08-2.41-.71.3-1.37.71-1.96,1.2-.6.5-1.11,1.07-1.54,1.72-.43.65-.75,1.34-.98,2.09-.22.74-.34,1.5-.34,2.28,0,.78.11,1.54.33,2.28.22.74.55,1.44.97,2.09.43.65.94,1.22,1.53,1.72.6.5,1.25.9,1.96,1.2-2.83-.36-5.52-1.16-8.08-2.41-2.56-1.25-4.85-2.87-6.88-4.87h0ZM45.11,25.54c-1.29-1.34-2.69-2.53-4.21-3.6-1.52-1.06-3.13-1.97-4.82-2.72-1.69-.75-3.45-1.33-5.25-1.74-1.81-.41-3.64-.64-5.49-.7-12.59-.23-20.36,8.26-21.47,9.51-.27.33-.55.65-.83.98.28.32.69.78,1.2,1.3,3.54,3.55,10.97,9.04,21.09,8.8,1.85-.06,3.68-.29,5.49-.7s3.56-.99,5.25-1.74c1.69-.75,3.3-1.66,4.82-2.72,1.52-1.06,2.92-2.26,4.21-3.59.5-.49,1-.99,1.48-1.49-.49-.53-.99-1.06-1.48-1.59Z"/>
</svg>