<?xml version="1.0" encoding="UTF-8"?>
<svg id="Layer_1" xmlns="http://www.w3.org/2000/svg" width="54" height="54" viewBox="0 0 54 54">
  <path d="M44.2,44.2c-2.38,2.38-5.24,4.26-8.43,5.49,1.48-1.2,2.82-2.7,4-4.43.97-1.43,1.83-3.03,2.56-4.76l4.95-.06c-.9,1.36-1.93,2.62-3.08,3.76ZM7.06,40.94l4.77-.06c.69,1.59,1.49,3.06,2.39,4.38,1.18,1.74,2.53,3.23,4,4.43-3.19-1.23-6.06-3.12-8.43-5.49-1-1-1.92-2.1-2.74-3.26ZM9.8,9.8c2.38-2.38,5.24-4.26,8.43-5.49-1.48,1.2-2.82,2.7-4,4.43-.9,1.33-1.71,2.8-2.39,4.38l-4.77-.06c.82-1.17,1.73-2.26,2.74-3.26ZM44.2,9.8c1.15,1.15,2.18,2.41,3.08,3.76l-4.95-.06c-.72-1.73-1.58-3.33-2.56-4.76-1.18-1.74-2.53-3.23-4-4.43,3.19,1.23,6.06,3.12,8.43,5.49ZM44.91,26.09c-.09-3.92-.78-7.61-1.94-10.91l5.33.07c1.8,3.25,2.87,6.96,3.01,10.91l-6.4-.07ZM33.55,38.94c.47-3.39.74-7.22.77-11.29l8.92.09c-.08,4.02-.82,7.8-2.05,11.1l-7.64.1ZM32.39,45c.34-1.33.65-2.8.91-4.39l7.2-.09c-.62,1.37-1.32,2.65-2.11,3.8-2.25,3.32-5.15,5.66-8.37,6.58.92-1.38,1.73-3.4,2.37-5.9ZM20.73,40.77c.25,1.53.55,2.95.88,4.23.64,2.5,1.45,4.52,2.37,5.9-3.22-.91-6.12-3.26-8.37-6.58-.72-1.06-1.38-2.22-1.96-3.47l7.07-.09ZM10.76,27.39l8.92.1c.02,4.19.3,8.14.79,11.61l-7.53.09c-1.35-3.48-2.14-7.5-2.19-11.8ZM20.47,14.9c-.46,3.28-.74,6.98-.78,10.91l-8.91-.09c.14-3.96.91-7.67,2.17-10.91l7.52.09ZM21.61,9c-.33,1.28-.63,2.7-.88,4.23l-7.07-.09c.58-1.25,1.23-2.41,1.96-3.47,2.25-3.32,5.15-5.66,8.37-6.58-.92,1.38-1.73,3.4-2.37,5.9ZM33.3,13.39c-.26-1.59-.56-3.06-.91-4.39-.64-2.5-1.45-4.52-2.37-5.9,3.22.91,6.12,3.26,8.37,6.58.79,1.16,1.49,2.43,2.11,3.8l-7.2-.09ZM22.42,13.26c.24-1.39.51-2.67.81-3.84,1.07-4.16,2.42-6.74,3.78-6.74s2.7,2.58,3.77,6.74c.31,1.2.59,2.53.83,3.96l-9.18-.12ZM21.36,25.84c.05-3.95.33-7.66.79-10.91l9.7.12c.46,3.26.74,6.96.78,10.91l-11.27-.12ZM22.16,39.08c-.49-3.43-.78-7.37-.8-11.57l11.28.12c-.03,4.11-.31,7.96-.78,11.33l-9.7.12ZM27,51.32c-1.36,0-2.7-2.58-3.78-6.74-.3-1.17-.57-2.46-.81-3.84l9.18-.11c-.24,1.43-.52,2.75-.83,3.96-1.07,4.16-2.42,6.74-3.78,6.74ZM34.31,25.97c-.04-3.93-.31-7.63-.76-10.91l7.64.09c1.22,3.25,1.95,6.96,2.05,10.91l-8.92-.09ZM6,14.72l5.17.07c-1.2,3.28-1.94,6.99-2.07,10.92l-6.38-.07c.22-3.97,1.39-7.68,3.29-10.91ZM2.68,27.31l6.4.07c.04,4.27.79,8.3,2.09,11.84l-5.17.06c-2.06-3.52-3.27-7.61-3.32-11.97ZM48.3,38.75l-5.33.07c1.17-3.33,1.86-7.09,1.94-11.06l6.39.07c-.13,3.95-1.21,7.67-3.01,10.93ZM45.38,8.62c-4.7-4.7-11.2-7.61-18.38-7.62h-.01c-7.18,0-13.68,2.91-18.38,7.62-1.44,1.44-2.7,3.04-3.77,4.78-.02.03-.04.06-.05.09-2.4,3.94-3.79,8.57-3.79,13.52s1.38,9.58,3.79,13.52c.02.03.04.06.05.09,1.07,1.74,2.34,3.34,3.78,4.78,4.7,4.7,11.21,7.62,18.38,7.62s13.68-2.91,18.38-7.62c4.7-4.7,7.62-11.21,7.62-18.38s-2.91-13.68-7.62-18.38Z"/>
</svg>