<?xml version="1.0" encoding="UTF-8"?>
<svg id="Layer_1" xmlns="http://www.w3.org/2000/svg" width="54" height="54" viewBox="0 0 54 54">
  <path d="M17.08,6.94l.06-.07v-.17s.02-.05.02-.08c.05-.15.12-.3.18-.45.05-.12.1-.25.12-.31l.08-.18c.43-.85,1.07-1.48,1.92-1.92.06-.02.13-.05.19-.08l.1-.04c.11-.05.21-.1.33-.14.27-.1.54-.17.81-.22.22-.04.45-.07.67-.09.08,0,.15,0,.23,0,.82,0,1.59.2,2.32.57l.05.02c.35.21.68.45.98.73l.09.07c.08.07.16.13.24.18l.07.04s.04.02.06.03l.25.08.54-.03.12-.12c.08-.06.17-.12.24-.18l.08-.07c.29-.27.6-.5.94-.7l.1-.05c.8-.43,1.65-.62,2.55-.57.22.02.45.05.67.09.28.05.56.13.83.23.1.04.2.08.3.12l.11.05c.06.03.12.06.18.08.87.44,1.53,1.11,1.96,1.99l.13.33c.06.13.12.27.17.4v.15l.11.22c.23.82.24,1.63.02,2.46s-.63,1.53-1.23,2.12c-1.73,1.78-3.53,3.56-5.26,5.29-.77.76-1.53,1.53-2.3,2.29-.12.12-.12.15-.26,0l-2.24-2.23c-1.78-1.77-3.57-3.55-5.33-5.35-.59-.58-1-1.28-1.22-2.08-.22-.8-.22-1.61,0-2.41h0ZM15.28,10.43l.04.12c.33.86.81,1.63,1.46,2.29.79.81,1.59,1.61,2.42,2.43l.21.22c1.58,1.58,3.15,3.15,4.72,4.73.4.45.89.76,1.47.92h.7s.07,0,.07,0c.58-.16,1.07-.47,1.47-.92,1.09-1.1,2.19-2.2,3.29-3.29l2.13-2.12c.65-.65,1.3-1.3,1.93-1.95.67-.68,1.17-1.47,1.49-2.37.19-.51.31-1.03.37-1.56.03-.12.05-.24.06-.36v-.98l-.08-.56c-.16-1.1-.57-2.1-1.22-3-.65-.9-1.47-1.6-2.46-2.11l-.11-.05c-.98-.48-2.01-.72-3.1-.73-.34,0-.68.02-1.01.07-1.12.17-2.14.59-3.05,1.27l-.1.06-.04-.03c-.51-.39-1.07-.69-1.67-.92-.6-.23-1.22-.37-1.86-.43s-1.27-.02-1.9.1c-.63.12-1.23.33-1.8.62-.05.03-.1.05-.08.04-.99.5-1.82,1.2-2.47,2.1s-1.06,1.9-1.22,3l-.07.47v1.08s.04.31.04.31c.06.54.19,1.06.37,1.56ZM50.79,26.76c0,.54-.2,1.01-.58,1.39l-13.14,13.14c-.5.52-1.03.99-1.59,1.43-.41.33-.86.59-1.35.77l-20.85,5.24c-.22.05-.41.16-.56.34l-2.05,2.14H3.22v-8.7l9.61-9.62c.42-.41.93-.58,1.51-.53h18.45c.5,0,.94.16,1.31.49l.07.08c.36.35.55.77.58,1.27v.12c0,.54-.19,1.01-.58,1.39-.38.39-.84.58-1.38.58h-12.73c-.15,0-.29.02-.43.08-.14.05-.26.13-.37.24-.11.1-.19.23-.25.36s-.09.28-.09.43.03.29.09.43c.06.14.14.26.25.36.11.1.23.18.37.24s.28.08.43.08h12.73c1.16,0,2.14-.41,2.96-1.23.25-.26.47-.56.65-.88l11.03-11.03c.38-.39.85-.58,1.39-.58h.1c.51.02.94.21,1.29.57.35.36.55.79.58,1.29v.11ZM43.63,21.92c.39-.38.85-.57,1.39-.57h.1c.5.03.94.21,1.29.57.22.22.39.49.5.79.03.1.05.2.06.3-.41.2-.78.47-1.11.79l-9.14,9.14c-.21-.6-.53-1.12-.98-1.57-.27-.26-.56-.48-.88-.66l8.76-8.78ZM52.99,26.48c-.02-.38-.1-.75-.23-1.11-.21-.6-.54-1.12-.99-1.57-.73-.73-1.6-1.12-2.63-1.2-.03-.2-.08-.39-.14-.58-.21-.64-.55-1.19-1.03-1.66l-.08-.08c-.73-.69-1.59-1.06-2.59-1.12h-.28c-1.15-.02-2.14.39-2.96,1.2l-9.77,9.78H14.54s-.05,0-.05,0c-.6-.04-1.19.04-1.76.25-.54.2-1.02.5-1.43.9L1.33,41.27c-.22.22-.33.49-.32.8v10.26c0,.15.02.29.08.42.06.14.14.25.24.36.1.1.22.18.36.24.14.06.28.09.42.09h9.02c.31,0,.58-.12.8-.34l2.18-2.28,20.61-5.18c.76-.26,1.45-.64,2.08-1.13.66-.51,1.27-1.06,1.85-1.66l13.12-13.12c.3-.3.55-.64.75-1.02.36-.7.51-1.43.46-2.21Z"/>
</svg>