<?xml version="1.0" encoding="UTF-8"?>
<svg id="Layer_1" xmlns="http://www.w3.org/2000/svg" width="66.64" height="77.8" viewBox="0 0 66.64 77.8">
  <defs>
    <style>
      .cls-1 {
        fill: #231f20;
      }
    </style>
  </defs>
  <path class="cls-1" d="M52.89,65.94c-.03-.64-.03-1.16-.09-1.67-.01-.12-.18-.25-.3-.33-3.48-2.36-4.19-6.79-2.23-10.45.04-.07.05-.14.11-.3.25,1.66.4,3.16.72,4.62.33,1.49.97,2.86,2.15,4.1,0-.33.02-.54,0-.74-.32-3.1-.52-6.22-1.01-9.29-.57-3.61-2.1-6.84-4.6-9.57-1.57-1.71-3.36-3.14-5.24-4.51-1.71-1.25-3.35-2.64-4.85-4.14-1.47-1.46-2.14-3.35-2.07-5.47.02-.54.03-1.08,0-1.62-.09-1.43-.73-2.22-2.11-2.59-1.65-.44-3.33-.82-4.98-1.28-4.8-1.32-9.32-3.3-13.39-6.19-1.95-1.38-3.76-2.94-5.21-4.86-1.81-2.4-2.93-5.04-2.79-8.12,0-.22.04-.43.06-.65.01-.09.05-.17.1-.31.11.11.21.17.28.26,2.77,3.65,5.93,6.95,9.3,10.03,2.58,2.37,5.68,4.03,8.88,5.44,2.55,1.13,5.18,2.1,7.79,3.1,1.44.55,2.77,1.26,3.43,2.7.35.75.49,1.61.63,2.43.09.56,0,1.15,0,1.73,0,1.84.66,3.42,2.06,4.59,1.92,1.61,3.91,3.14,5.87,4.7,2.17,1.72,4.2,3.59,5.75,5.91,1.33,1.99,2.23,4.16,2.53,6.55.02.18.02.4.12.52.15.17.39.38.57.37.18,0,.4-.25.5-.45.1-.18.07-.42.09-.64.23-3.04-.66-5.75-2.51-8.13-.79-1.01-1.69-1.93-2.58-2.84-.3-.32-.45-.61-.43-1.04.03-.46,0-.92,0-1.48,1.51,1,2.81,2.05,3.97,3.3,2.28,2.44,3.47,5.33,3.6,8.65.09,2.19-.41,4.26-1.42,6.21-.23.44-.31.85-.27,1.37.17,1.94.22,3.89.33,5.84.2,3.59.4,7.17.61,10.76.03.45.03.79-.45,1.08-.56.33-.66,1.04-.32,1.46.34.42.93.48,1.4.13,1.71-1.28,3.94-.42,4.37,1.7.06.3.08.6.11.88-.07.05-.09.09-.12.09-1.86-.02-3.72,0-5.57-.09-1.17-.06-1.91-.82-2.31-1.86-1.07-2.78-2.09-5.57-3.14-8.36-.14-.37-.27-.75-.43-1.11-.08-.17-.2-.33-.34-.45-1.8-1.52-2.9-3.39-2.84-5.8.02-.75.3-1.43.76-2.06.17,1.7.67,3.28,1.62,4.68.95,1.4,2.09,2.61,3.88,3.19"/>
  <path class="cls-1" d="M65.9,22.8c-.06-.35-.09-.63-.15-.91-.29-1.26-1.24-2.09-2.53-2.12-1.52-.04-3.03-.03-4.55-.02-.17,0-.4.1-.48.24-.41.65-.78,1.32-1.12,2.04,2.13-.8,4.28-.43,6.51-.48-.08.4-.14.69-.21,1.02-1.12-.37-2.22-.31-3.3-.1-2.61.52-4.99,3.23-2.99,6.52.65,1.06,1.54,2,2.41,2.9,1.29,1.32,2.58,2.64,3.46,4.28,2.67,4.93,2.72,9.85-.17,14.72-.65,1.09-1.52,1.99-2.48,2.79.36-1,.82-1.96,1.07-2.97,1.1-4.45-.09-8.39-2.82-11.93-1.32-1.71-3-3.06-4.75-4.31-1.55-1.11-3.16-2.18-4.56-3.47-2.38-2.19-3.14-4.94-2-8.02.34-.92,1.06-1.7,1.61-2.54.08-.13.2-.24.41-.47-.35.05-.58.04-.78.11-2.34.84-4.68,1.69-7.02,2.54-.23.08-.46.17-.81.31,1.1-1.85,2.49-3.21,4.25-4.17,1.59-.87,3.03-1.92,4.35-3.24-.45.07-.91.07-1.33.21-1.35.46-2.68.95-4.01,1.47-1.12.44-2.24.7-3.43.41-1.34-.33-2.29-1.13-2.89-2.5.43.17.74.32,1.08.42,1.27.4,2.53.36,3.77-.1,1.22-.45,2.42-.95,3.64-1.4,4.14-1.5,8.31-1.5,12.48-.16.65.21,1.28.6,1.82,1.02.94.73,1.08,1.5.62,2.59-.11.24-.21.49-.31.71.41.05.8.12,1.19.14.15,0,.37-.06.45-.17.24-.31.39-.69.63-1,.1-.13.34-.27.49-.25,2.74.48,4.06,3.4,2.61,5.79-.02.04-.07.07-.15.13M57.71,33.06c-.11-.14-.16-.21-.22-.28-1.65-1.92-2.22-4.07-1.38-6.53.04-.12,0-.32-.09-.41-1.01-1.11-1.32-2.41-1.07-3.86.08-.43.22-.85.34-1.31-2.21,1.19-3.46,3.35-3.23,6.1.24,2.88,2.7,5.61,5.65,6.28M58.06,17.73c.38-.06.77-.02.93-.18.28-.28.45-.69.63-1.06.14-.31.06-.48-.34-.52-.75-.07-1.5-.15-2.23-.33-2.37-.56-4.37-.01-6.1,1.95,1.42,0,2.73,0,4.03-.02.12,0,.26-.19.36-.32.2-.27.79-.38,1.07-.16.33.26.36.64.11.91-.3.32-.69.58-1.08.77-.35.18-.77.24-1.23.37.77.6,1.55.72,2.4.45.96-.3,1.44-.98,1.46-1.86"/>
  <path class="cls-1" d="M25.38,76.2c4.08-2.83,8.26-5.49,11.2-9.61.31-.44.58-.9.87-1.35-.03-.05-.06-.09-.08-.14-.49.15-.99.26-1.46.44-1.9.73-3.48,1.97-5.08,3.17-3.23,2.42-6.43,4.9-10,6.83-.44.24-.89.45-1.4.7-.39-1.26-.53-2.48-.45-3.72.3-4.89,2.77-8.6,6.46-11.59,2.61-2.12,5.58-3.5,8.95-3.94,1.45-.19,2.89-.14,4.28.36.51.19.96.54,1.44.82.33.19.66.37,1.08.6-.14.41-.32.94-.51,1.48-.11-.05-.17-.06-.21-.09-2.06-1.91-4.46-1.93-6.94-1.15-2.95.93-5.26,2.79-7.14,5.22-.24.31-.5.61-.73.94-.38.53-.31,1.2.13,1.57.44.37,1,.29,1.48-.23.16-.17.27-.38.4-.57,1.79-2.61,4.14-4.45,7.23-5.26.98-.26,1.97-.22,2.93.17,1.93.78,2.88,2.93,2.28,5.09-.33,1.2-1.02,2.17-1.88,3.05-3.31,3.42-7.31,5.65-11.86,6.95-.32.09-.65.19-.97.29"/>
  <path class="cls-1" d="M29.95,25.33c-.1.57-.21,1.1-.28,1.64-.04.32-.19.37-.47.33-6.56-.82-12.85-2.49-18.61-5.83-2.47-1.43-4.71-3.14-6.53-5.36-1.19-1.45-2.05-3.09-2.65-4.87-.03-.08-.04-.17-.09-.39.3.19.5.31.7.44,3.82,2.46,7.61,4.96,11.47,7.36,4.57,2.83,9.5,4.85,14.7,6.2.57.15,1.14.32,1.76.49"/>
  <path class="cls-1" d="M.12,20.43c1.47.58,2.95,1.13,4.42,1.73,4.74,1.93,9.43,4.01,14.41,5.29,2.07.54,4.19.93,6.28,1.39.17.04.35.07.63.13-.25.27-.42.49-.62.67-1.12.96-2.37,1.56-3.9,1.37-5.02-.63-9.91-1.76-14.43-4.12-2.41-1.26-4.52-2.9-6.13-5.12-.28-.39-.51-.82-.76-1.22.04-.04.08-.08.12-.12"/>
  <path class="cls-1" d="M26.6,33.4c-.42.73-.77,1.37-1.16,1.98-.08.13-.35.17-.54.2-3.12.47-6.25.5-9.38.18-3.05-.31-6.07-.84-8.94-2.01-2.3-.94-4.42-2.18-6.25-3.9-.06-.06-.16-.07-.2-.18,8.77,1.51,17.4,3.7,26.46,3.72"/>
  <path class="cls-1" d="M17.28,77.79c-.79,0-1.69.02-2.59-.02-.13,0-.31-.26-.35-.43-.62-2.16-.63-4.36-.13-6.53,1.36-5.96,4.86-10.4,9.86-13.76.01,0,.04,0,.11,0-.18.51-.43,1-.51,1.51-.16,1.09-.85,1.79-1.59,2.52-3.44,3.41-5.34,7.55-5.38,12.42-.01,1.4.36,2.8.57,4.29"/>
  <path class="cls-1" d="M8.56,41.7c7.16-.55,14.08-1.55,20.89-3.52-.51.41-.99.83-1.52,1.21-2.38,1.74-5.09,2.74-7.92,3.46-1.92.48-3.85.82-5.82.76-2.01-.06-3.83-.76-5.62-1.92"/>
  <path class="cls-1" d="M18.74.15c-1.96,5.88.33,10.46,4.44,14.49-3.39-1.79-6.56-3.81-8.16-7.52-.52-1.19-.77-2.44-.74-3.74,0-.2.11-.48.26-.58,1.35-.95,2.72-1.87,4.09-2.8.04.05.08.1.12.15"/>
  <path class="cls-1" d="M42.7,77.79h-14.54c.18-.12.27-.19.37-.24,1.64-.84,3.26-1.7,4.92-2.5.42-.2.92-.28,1.4-.32.63-.05,1.27-.04,1.89.02.47.04.94.18,1.4.33.24.08.39.15.6-.08.62-.66,1.43-.79,2.27-.42,1.17.52,1.88,1.83,1.69,3.2"/>
  <path class="cls-1" d="M41.11,39.67c-6.65-1.76-10.73-8.11-9.2-13.97.57.14,1.13.27,1.6.38,0,.88-.01,1.67,0,2.46.07,3.33,1.7,5.82,4.24,7.79,1.24.96,2.32,2.08,3.36,3.34"/>
  <path class="cls-1" d="M25.81,58.1c.67-2.08,1.81-3.65,3.29-4.98,2.38-2.13,5.17-3.59,8.06-4.87.51-.22,1.02-.45,1.65-.73-.12.21-.17.33-.25.43-1.33,1.72-3.09,2.96-4.8,4.25-1.46,1.11-3.06,2.1-4.3,3.43-1.04,1.11-2.34,1.61-3.65,2.46"/>
  <path class="cls-1" d="M47.88,35.02c-.45-.31-.92-.6-1.35-.94-2.55-1.96-4.01-4.49-4-7.76,0-.61.11-1.22.24-1.82.04-.21.26-.44.46-.54.61-.31,1.24-.56,1.93-.86-.1.47-.2.86-.26,1.26-.28,1.74-.05,3.4.66,5.02.57,1.28,1.01,2.62,1.56,3.91.23.55.59,1.06.89,1.58-.04.04-.08.09-.12.13"/>
  <path class="cls-1" d="M12.31,69.36c-.7,2.77-1.02,5.55-.31,8.41h-3.29c.28-3.21,1.52-5.97,3.6-8.41"/>
  <path class="cls-1" d="M65.71,77.78h-2.25c0-1.16-.27-2.23-1.08-3.15.81-.32,1.48-.22,2.07.23.95.71,1.37,1.68,1.25,2.92"/>
  <path class="cls-1" d="M43.91,74.53c1.92-.56,3.54,1.52,3.24,3.21h-2.21c.05-1.21-.38-2.22-1.03-3.21"/>
</svg>